<svg xmlns="http://www.w3.org/2000/svg" xmlns:xlink="http://www.w3.org/1999/xlink" width="962.084" height="101.382" viewBox="0 0 962.084 101.382">
  <defs>
    <filter id="path1648" x="0" y="21.622" width="30.231" height="55.648" filterUnits="userSpaceOnUse">
      <feOffset dx="3" dy="3" input="SourceAlpha"/>
      <feGaussianBlur result="blur"/>
      <feFlood flood-color="#ff9b31"/>
      <feComposite operator="in" in2="blur"/>
      <feComposite in="SourceGraphic"/>
    </filter>
    <filter id="path2566" x="687.815" y="24.892" width="22.26" height="37.736" filterUnits="userSpaceOnUse">
      <feOffset dx="3" dy="3" input="SourceAlpha"/>
      <feGaussianBlur result="blur-2"/>
      <feFlood flood-color="#ff9b31"/>
      <feComposite operator="in" in2="blur-2"/>
      <feComposite in="SourceGraphic"/>
    </filter>
    <filter id="path916" x="9.639" y="2.245" width="79.031" height="98.704" filterUnits="userSpaceOnUse">
      <feOffset dx="3" dy="3" input="SourceAlpha"/>
      <feGaussianBlur result="blur-3"/>
      <feFlood flood-color="#ff9b31"/>
      <feComposite operator="in" in2="blur-3"/>
      <feComposite in="SourceGraphic"/>
    </filter>
    <filter id="path918" x="413.264" y="2.205" width="72.694" height="98.704" filterUnits="userSpaceOnUse">
      <feOffset dx="3" dy="3" input="SourceAlpha"/>
      <feGaussianBlur result="blur-4"/>
      <feFlood flood-color="#ff9b31"/>
      <feComposite operator="in" in2="blur-4"/>
      <feComposite in="SourceGraphic"/>
    </filter>
    <filter id="rect920" x="76.23" y="2.241" width="79.031" height="98.702" filterUnits="userSpaceOnUse">
      <feOffset dx="3" dy="3" input="SourceAlpha"/>
      <feGaussianBlur result="blur-5"/>
      <feFlood flood-color="#ff9b31"/>
      <feComposite operator="in" in2="blur-5"/>
      <feComposite in="SourceGraphic"/>
    </filter>
    <filter id="path926" x="140.714" y="2.205" width="79.031" height="98.704" filterUnits="userSpaceOnUse">
      <feOffset dx="3" dy="3" input="SourceAlpha"/>
      <feGaussianBlur result="blur-6"/>
      <feFlood flood-color="#ff9b31"/>
      <feComposite operator="in" in2="blur-6"/>
      <feComposite in="SourceGraphic"/>
    </filter>
    <filter id="rect928" x="217.354" y="2.68" width="65.079" height="98.702" filterUnits="userSpaceOnUse">
      <feOffset dx="3" dy="3" input="SourceAlpha"/>
      <feGaussianBlur result="blur-7"/>
      <feFlood flood-color="#ff9b31"/>
      <feComposite operator="in" in2="blur-7"/>
      <feComposite in="SourceGraphic"/>
    </filter>
    <filter id="path932" x="306.332" y="2.205" width="79.031" height="98.704" filterUnits="userSpaceOnUse">
      <feOffset dx="3" dy="3" input="SourceAlpha"/>
      <feGaussianBlur result="blur-8"/>
      <feFlood flood-color="#ff9b31"/>
      <feComposite operator="in" in2="blur-8"/>
      <feComposite in="SourceGraphic"/>
    </filter>
    <filter id="rect934" x="479.285" y="2.202" width="78.931" height="98.702" filterUnits="userSpaceOnUse">
      <feOffset dx="3" dy="3" input="SourceAlpha"/>
      <feGaussianBlur result="blur-9"/>
      <feFlood flood-color="#ff9b31"/>
      <feComposite operator="in" in2="blur-9"/>
      <feComposite in="SourceGraphic"/>
    </filter>
    <filter id="rect940" x="547.486" y="2.205" width="65.081" height="98.703" filterUnits="userSpaceOnUse">
      <feOffset dx="3" dy="3" input="SourceAlpha"/>
      <feGaussianBlur result="blur-10"/>
      <feFlood flood-color="#ff9b31"/>
      <feComposite operator="in" in2="blur-10"/>
      <feComposite in="SourceGraphic"/>
    </filter>
    <filter id="rect944" x="612.706" y="2.205" width="65.081" height="98.703" filterUnits="userSpaceOnUse">
      <feOffset dx="3" dy="3" input="SourceAlpha"/>
      <feGaussianBlur result="blur-11"/>
      <feFlood flood-color="#ff9b31"/>
      <feComposite operator="in" in2="blur-11"/>
      <feComposite in="SourceGraphic"/>
    </filter>
    <filter id="path948" x="677.864" y="0" width="190.815" height="100.907" filterUnits="userSpaceOnUse">
      <feOffset dx="3" dy="3" input="SourceAlpha"/>
      <feGaussianBlur result="blur-12"/>
      <feFlood flood-color="#ff9b31"/>
      <feComposite operator="in" in2="blur-12"/>
      <feComposite in="SourceGraphic"/>
    </filter>
    <filter id="rect950" x="897.011" y="2.202" width="65.073" height="98.702" filterUnits="userSpaceOnUse">
      <feOffset dx="3" dy="3" input="SourceAlpha"/>
      <feGaussianBlur result="blur-13"/>
      <feFlood flood-color="#ff9b31"/>
      <feComposite operator="in" in2="blur-13"/>
      <feComposite in="SourceGraphic"/>
    </filter>
    <filter id="circle1612" x="859.69" y="11.772" width="35.314" height="23.44" filterUnits="userSpaceOnUse">
      <feOffset dx="3" dy="3" input="SourceAlpha"/>
      <feGaussianBlur result="blur-14"/>
      <feFlood flood-color="#ff9b31"/>
      <feComposite operator="in" in2="blur-14"/>
      <feComposite in="SourceGraphic"/>
    </filter>
  </defs>
  <g id="Group_3" data-name="Group 3" transform="translate(-479.619 -202.311)">
    <g id="layer1" transform="translate(460.193 87.288)">
      <g transform="matrix(1, 0, 0, 1, 19.43, 115.02)" filter="url(#path1648)">
        <path id="path1648-2" data-name="path1648" d="M21.1,128.9C52.578,104.889,7.481,169,28.562,173.251c5.742,1.157,11.5.742,16.406-3.615" transform="translate(-19.43 -100.72)" fill="none" stroke="#b61b10" stroke-linecap="square" stroke-linejoin="round" stroke-width="2.394"/>
      </g>
      <g transform="matrix(1, 0, 0, 1, 19.43, 115.02)" filter="url(#path2566)">
        <path id="path2566-2" data-name="path2566" d="M277.431,128.144c22.376-15.812-9.685,26.416,5.3,29.213,4.082.762,8.173.489,11.664-2.381" transform="translate(411.53 -98.9)" fill="none" stroke="#fff" stroke-linecap="square" stroke-linejoin="round" stroke-width="1.638"/>
      </g>
      <g transform="matrix(1, 0, 0, 1, 19.43, 115.02)" filter="url(#path916)">
        <path id="path916-2" data-name="path916" d="M41.344,115.86l-17.271,95.7H43.009l12.33-10.444,8.56,10.444H82.834l17.271-95.7H81.169L68.731,184.785l-8.56-10.445L47.842,184.784,60.28,115.86Z" transform="translate(-14.43 -113.61)" fill="#b61b10"/>
      </g>
      <g transform="matrix(1, 0, 0, 1, 19.43, 115.02)" filter="url(#path918)">
        <path id="path918-2" data-name="path918" d="M191.879,115.845l-17.271,95.7h58.658l10.56-58.519h-6.234l6.71-37.184H191.879Zm16.613,13.089h21.661l-1.986,11.006-1.05,5.818H205.456l1.05-5.818Zm-8.308,45.391h25.584l-3.036,16.824H197.148l.162-.9Z" transform="translate(238.65 -113.64)" fill="#b61b10"/>
      </g>
      <g transform="matrix(1, 0, 0, 1, 19.43, 115.02)" filter="url(#rect920)">
        <path id="rect920-2" data-name="rect920" d="M66.18,115.858l-17.271,95.7H67.844l6.927-38.383h20.89L88.734,211.56H107.67l17.271-95.7H106l-6.927,38.384H78.189l6.927-38.384Z" transform="translate(27.32 -113.62)" fill="#b61b10"/>
      </g>
      <g transform="matrix(1, 0, 0, 1, 19.43, 115.02)" filter="url(#path926)">
        <path id="path926-2" data-name="path926" d="M90.23,115.845l-10.56,58.519-6.71,37.185H91.894l6.71-37.185h20.89l-6.71,37.185h18.935l17.271-95.7H90.23ZM116.5,134.773h0a3.03,3.03,0,0,1,1.267.264,2.631,2.631,0,0,1,.943.725,2.685,2.685,0,0,1,.53,1.074,3.171,3.171,0,0,1,.028,1.315,3.812,3.812,0,0,1-.411,1.126h.208a2.018,2.018,0,0,1,.844.177,1.754,1.754,0,0,1,.629.483,1.789,1.789,0,0,1,.354.715,2.112,2.112,0,0,1,.019.876,2.56,2.56,0,0,1-.382.943,2.987,2.987,0,0,1-.7.746h.5a2.272,2.272,0,0,1,.95.2,1.969,1.969,0,0,1,.707.542,2.011,2.011,0,0,1,.4.805,2.383,2.383,0,0,1,.021.987,2.79,2.79,0,0,1-.18.6,3.056,3.056,0,0,1-.3.544,3.332,3.332,0,0,1-.888.868h0a2.138,2.138,0,0,1,.789.294,1.953,1.953,0,0,1,.577.553,2.03,2.03,0,0,1,.314.753,2.4,2.4,0,0,1,0,.9,2.915,2.915,0,0,1-.377.986,3.283,3.283,0,0,1-.688.806,3.227,3.227,0,0,1-.9.543,2.8,2.8,0,0,1-1.022.2H106.771a2.276,2.276,0,0,1-.951-.2,1.969,1.969,0,0,1-.707-.543,2.013,2.013,0,0,1-.4-.806,2.379,2.379,0,0,1-.021-.986,2.884,2.884,0,0,1,.325-.9,3.232,3.232,0,0,1,.586-.753,3.3,3.3,0,0,1,.776-.553,2.986,2.986,0,0,1,.9-.294,1.983,1.983,0,0,1-.575-.868,2.157,2.157,0,0,1-.1-.544,2.464,2.464,0,0,1,.036-.6,2.917,2.917,0,0,1,.377-.987,3.279,3.279,0,0,1,.688-.805,3.228,3.228,0,0,1,.9-.543,2.8,2.8,0,0,1,1.023-.2h.5a1.793,1.793,0,0,1-.431-.745,2.053,2.053,0,0,1-.042-.944,2.581,2.581,0,0,1,.335-.875,2.926,2.926,0,0,1,.612-.716,2.887,2.887,0,0,1,.8-.483,2.478,2.478,0,0,1,.908-.177h.563a3.113,3.113,0,0,0,1.136-.221,3.588,3.588,0,0,0,1-.6,3.648,3.648,0,0,0,.765-.895,3.241,3.241,0,0,0,.419-1.1,2.66,2.66,0,0,0,.016-.875,2.357,2.357,0,0,0-.253-.762,3.462,3.462,0,0,1,.541-.053Z" transform="translate(67.75 -113.64)" fill="#b61b10"/>
      </g>
      <g transform="matrix(1, 0, 0, 1, 19.43, 115.02)" filter="url(#rect928)">
        <path id="rect928-2" data-name="rect928" d="M104.96,116.022l-3.417,18.935h19.9l-13.853,76.767h18.935l13.854-76.767H160.2l3.417-18.935H104.96Z" transform="translate(115.81 -113.34)" fill="#b61b10"/>
      </g>
      <g transform="matrix(1, 0, 0, 1, 19.43, 115.02)" filter="url(#path932)">
        <path id="path932-2" data-name="path932" d="M152,115.845l-10.56,58.519-6.71,37.185h18.935l6.71-37.185h20.89l-6.71,37.185h18.935l17.271-95.7H152Zm26.267,18.928h0a3.03,3.03,0,0,1,1.267.264,2.631,2.631,0,0,1,.943.725,2.686,2.686,0,0,1,.53,1.074,3.169,3.169,0,0,1,.028,1.315,3.821,3.821,0,0,1-.411,1.126h.208a2.018,2.018,0,0,1,.844.177,1.753,1.753,0,0,1,.629.483,1.789,1.789,0,0,1,.354.715,2.11,2.11,0,0,1,.019.876,2.557,2.557,0,0,1-.382.943,2.987,2.987,0,0,1-.7.746h.5a2.272,2.272,0,0,1,.95.2,1.969,1.969,0,0,1,.707.542,2.01,2.01,0,0,1,.4.805,2.384,2.384,0,0,1,.021.987,2.8,2.8,0,0,1-.18.6,3.06,3.06,0,0,1-.3.544,3.334,3.334,0,0,1-.888.868h0a2.138,2.138,0,0,1,.789.294,1.952,1.952,0,0,1,.577.553,2.029,2.029,0,0,1,.314.753,2.4,2.4,0,0,1,0,.9,2.918,2.918,0,0,1-.377.986,3.284,3.284,0,0,1-.688.806,3.226,3.226,0,0,1-.9.543,2.8,2.8,0,0,1-1.022.2H168.54a2.276,2.276,0,0,1-.951-.2,1.97,1.97,0,0,1-.707-.543,2.011,2.011,0,0,1-.4-.806,2.391,2.391,0,0,1-.021-.986,2.886,2.886,0,0,1,.325-.9,3.23,3.23,0,0,1,.586-.753,3.294,3.294,0,0,1,.776-.553,2.985,2.985,0,0,1,.9-.294,1.983,1.983,0,0,1-.575-.868,2.164,2.164,0,0,1-.1-.544,2.409,2.409,0,0,1,.036-.6,2.918,2.918,0,0,1,.377-.987,3.28,3.28,0,0,1,.688-.805,3.227,3.227,0,0,1,.9-.543,2.8,2.8,0,0,1,1.023-.2h.5a1.793,1.793,0,0,1-.431-.745,2.053,2.053,0,0,1-.042-.944,2.58,2.58,0,0,1,.335-.875,2.928,2.928,0,0,1,.612-.716,2.888,2.888,0,0,1,.8-.483,2.478,2.478,0,0,1,.908-.177h.563a3.113,3.113,0,0,0,1.136-.221,3.588,3.588,0,0,0,1-.6,3.648,3.648,0,0,0,.765-.895,3.24,3.24,0,0,0,.419-1.1,2.659,2.659,0,0,0,.016-.875,2.355,2.355,0,0,0-.253-.762,3.461,3.461,0,0,1,.541-.053Z" transform="translate(171.6 -113.64)" fill="#b61b10"/>
      </g>
      <g transform="matrix(1, 0, 0, 1, 19.43, 115.02)" filter="url(#rect934)">
        <path id="rect934-2" data-name="rect934" d="M216.507,115.844l-13.854,76.767h0l-3.416,18.935h58.662l3.417-18.935,13.853-76.767H256.228l-13.854,76.767H221.587l13.855-76.767Z" transform="translate(280.05 -113.64)" fill="#b61b10"/>
      </g>
      <g transform="matrix(1, 0, 0, 1, 19.43, 115.02)" filter="url(#rect940)">
        <path id="rect940-2" data-name="rect940" d="M241.943,115.845,228.09,192.613h-.005l-3.417,18.935h58.663l3.418-18.935H247.026l13.854-76.768Z" transform="translate(322.82 -113.64)" fill="#b61b10"/>
      </g>
      <g transform="matrix(1, 0, 0, 1, 19.43, 115.02)" filter="url(#rect944)">
        <path id="rect944-2" data-name="rect944" d="M266.269,115.845l-13.854,76.768h-.005l-3.417,18.935h58.664l3.417-18.935H271.35L285.2,115.845Z" transform="translate(363.71 -113.64)" fill="#b61b10"/>
      </g>
      <g transform="matrix(1, 0, 0, 1, 19.43, 115.02)" filter="url(#path948)">
        <path id="path948-2" data-name="path948" d="M281.743,212.93a18.5,18.5,0,0,1,1.428-2.112,18.277,18.277,0,0,1,1.615-1.76c1.034-.992,1.944-1.654,2.489-2.171a2.074,2.074,0,0,1,.467-.328,3.231,3.231,0,0,1,.569-.226,7.931,7.931,0,0,1,1.361-.252c.49-.057,1.008-.1,1.526-.155a10.835,10.835,0,0,0,1.527-.264,12.057,12.057,0,0,0,2.027-.824c.834-.408,1.8-.939,2.824-1.556s2.1-1.321,3.161-2.077,2.1-1.563,3.034-2.386a37.216,37.216,0,0,1,3.2-2.465c1.158-.808,2.376-1.589,3.554-2.3s2.315-1.362,3.313-1.9,1.855-.977,2.472-1.267c1.234-.581,4.366-1.84,7.459-3.018,1.547-.589,3.083-1.158,4.368-1.612s2.319-.793,2.859-.922a13.794,13.794,0,0,1,2.036-.276c.8-.062,1.719-.1,2.7-.143s2.036-.08,3.114-.143,2.183-.147,3.271-.276c2.177-.258,7.714-.807,13.3-1.38s11.208-1.17,13.564-1.525c1.178-.177,3.286-.617,5.808-1.176s5.459-1.237,8.292-1.89,5.562-1.283,7.672-1.745a32.631,32.631,0,0,1,3.951-.74,3.5,3.5,0,0,1,1.031.217,5.007,5.007,0,0,1,.922.453,4.282,4.282,0,0,1,1.165,1.008c.359.516,2.016,2.776,2.734,3.808a2.5,2.5,0,0,1,.35.689,2.878,2.878,0,0,1,.11.61c.019.206.033.422.075.671a4.3,4.3,0,0,0,.244.87,5.048,5.048,0,0,0,.677,1.116c.3.4.662.829,1.03,1.272s.743.9,1.073,1.37a7.137,7.137,0,0,1,.807,1.406,3.111,3.111,0,0,1,.19.82,7.064,7.064,0,0,1,.029,1.009,19.094,19.094,0,0,1-.255,2.3c-.125.783-.271,1.549-.381,2.2a8.137,8.137,0,0,0-.165,1.539,1.446,1.446,0,0,0,.135.51,2.637,2.637,0,0,0,.314.507,6.592,6.592,0,0,0,.967.969c.729.613,1.536,1.146,1.891,1.5a3.273,3.273,0,0,0,.822.543,9.283,9.283,0,0,0,1.264.506,12.508,12.508,0,0,0,1.5.386,10.06,10.06,0,0,0,1.541.179,7.238,7.238,0,0,0,1.277-.048,2.417,2.417,0,0,0,.9-.29,1.661,1.661,0,0,0,.591-.6,3.4,3.4,0,0,0,.359-.993,2.056,2.056,0,0,0,.031-.639,3.384,3.384,0,0,0-.148-.688,6.991,6.991,0,0,0-.649-1.4,16.485,16.485,0,0,0-1.47-2.049,50.606,50.606,0,0,1-2.441-4.76c-.481-1.025-.9-1.973-1.131-2.556a2.265,2.265,0,0,1-.174-.565c0-.073.072-.019.227.2a7.649,7.649,0,0,0,1.009,1.155,10.149,10.149,0,0,0,1.143.918c.8.557,1.646,1.025,2.489,1.541a2.181,2.181,0,0,1,.562.509,3.733,3.733,0,0,1,.438.716,9.435,9.435,0,0,1,.608,1.849c.161.674.291,1.382.426,2.055a15.848,15.848,0,0,0,.453,1.842,14.53,14.53,0,0,1,.47,2.139c.135.844.248,1.77.339,2.629.182,1.719.275,3.171.275,3.171a5.319,5.319,0,0,0,.271.468,8.489,8.489,0,0,0,.835,1.1,8.075,8.075,0,0,0,1.433,1.267,7.2,7.2,0,0,0,.952.553,6.872,6.872,0,0,0,1.115.423,8.237,8.237,0,0,0,1.119.238,6.1,6.1,0,0,0,.972.058,4.728,4.728,0,0,0,.838-.09,4.381,4.381,0,0,0,.718-.206,4.651,4.651,0,0,0,1.133-.635,8.716,8.716,0,0,0,.822-.72.716.716,0,0,0,.173-.524,3.232,3.232,0,0,0-.131-.836,15.9,15.9,0,0,0-.867-2.255c-.372-.823-.792-1.678-1.159-2.449a18.007,18.007,0,0,1-.833-1.94,5.679,5.679,0,0,1-.247-.966.764.764,0,0,1,.028-.373.919.919,0,0,0,.06-.349,4.1,4.1,0,0,0-.15-.894,3.92,3.92,0,0,0-.376-.857c-.187-.342-.428-.735-.7-1.169-.542-.868-1.205-1.9-1.8-3-.3-.551-.579-1.119-.82-1.693a11.22,11.22,0,0,1-.578-1.731,6.622,6.622,0,0,1-.2-1.7,4.851,4.851,0,0,1,.09-.816,4.122,4.122,0,0,1,.239-.782,9.963,9.963,0,0,0,.463-1.33,4.282,4.282,0,0,0,.151-.985,2.014,2.014,0,0,0-.1-.707,1.452,1.452,0,0,0-.291-.5,2.941,2.941,0,0,0-.92-.621,4.5,4.5,0,0,1-.97-.573,3.784,3.784,0,0,1-.775-1.074,11.888,11.888,0,0,1-.615-1.419c-.346-.944-.553-1.767-.553-1.767s-1.262-5.164-1.369-6a17.178,17.178,0,0,1-.2-1.711,6.56,6.56,0,0,1,.045-1.1,5.248,5.248,0,0,1,.3-1.188,2.46,2.46,0,0,1,.51-.866,1.692,1.692,0,0,1,.612-.393c.222-.089.461-.153.72-.248a3.44,3.44,0,0,0,.831-.429,2.362,2.362,0,0,1,1-.387,5.284,5.284,0,0,1,1.128-.041,15.69,15.69,0,0,0,2.128.1,2.039,2.039,0,0,0,.841-.307,4.922,4.922,0,0,0,.768-.6,18.773,18.773,0,0,1,1.446-1.347,1.453,1.453,0,0,1,.66-.289,1.084,1.084,0,0,1,.52.055c.3.1.487.3.551.3a7.258,7.258,0,0,1-.2,1.275,5.194,5.194,0,0,0-.078.958,1.41,1.41,0,0,0,.058.374.433.433,0,0,0,.157.233,16.71,16.71,0,0,0,2.126,1.1,4.076,4.076,0,0,1,.674.405,3.25,3.25,0,0,1,.46.418,5.033,5.033,0,0,1,.522.727.835.835,0,0,0,.443.23c.214.065.478.125.738.206a2.481,2.481,0,0,1,.715.327,1.006,1.006,0,0,1,.251.254.792.792,0,0,1,.126.339,1.014,1.014,0,0,0,.231.453,4.311,4.311,0,0,0,.538.554,13.837,13.837,0,0,0,1.69,1.236,20.541,20.541,0,0,0,1.99,1.115,8.4,8.4,0,0,0,1.67.643,2.689,2.689,0,0,0,.607.069,2.326,2.326,0,0,0,.536-.068,3.445,3.445,0,0,0,.96-.428c.313-.19.629-.414.985-.635a6.949,6.949,0,0,1,1.218-.616,3.764,3.764,0,0,0,1.006-.53,1.353,1.353,0,0,0,.416-.511c.148-.331.108-.638.283-.9a.863.863,0,0,0,.143-.418,1.967,1.967,0,0,0-.024-.461,4.52,4.52,0,0,1-.115-.928,9.2,9.2,0,0,1,.7-1.92c.38-.855.84-1.792,1.176-2.4a10.675,10.675,0,0,0,.732-1.686c.156-.46.227-.767.227-.767s.48-1.049,1.027-2.2,1.161-2.412,1.431-2.832a3.856,3.856,0,0,1,.526-.626c.208-.207.44-.411.674-.608a13.174,13.174,0,0,0,1.221-1.089,17.456,17.456,0,0,0,1.135-1.6c.39-.6.71-1.114.71-1.114s.439-.646.907-1.364a17.572,17.572,0,0,0,1.083-1.8,11.677,11.677,0,0,0,.478-1.936,13.1,13.1,0,0,0,.074-1.485.871.871,0,0,1,.131-.372,2.742,2.742,0,0,1,.271-.378,4.786,4.786,0,0,1,.389-.411h0s.479-1.227.959-2.63c.24-.7.479-1.448.658-2.108a7.065,7.065,0,0,0,.3-1.588,1.567,1.567,0,0,0-.106-.543,2.832,2.832,0,0,0-.288-.555,6.83,6.83,0,0,0-.944-1.1c-.734-.718-1.6-1.38-2.124-1.864a3.05,3.05,0,0,0-1.038-.584,8.68,8.68,0,0,0-1.447-.36c-1.072-.186-2.33-.283-3.6-.412a5.087,5.087,0,0,1-.839-.15,3.217,3.217,0,0,1-.664-.262,4.307,4.307,0,0,1-1.1-.9c-.366-.387-.763-.868-1.291-1.453a29.056,29.056,0,0,0-2.073-2.082,32.755,32.755,0,0,0-3.365-2.582c-1.287-.884-2.67-1.758-3.942-2.533-2.544-1.549-4.645-2.7-4.645-2.7s-2.624-1.017-5.7-2.1c-1.536-.541-3.185-1.1-4.673-1.551a28.2,28.2,0,0,0-3.714-.934,11.13,11.13,0,0,0-2.148-.134,8.436,8.436,0,0,0-1.541.23c-.492.113-1,.25-1.652.375a19.075,19.075,0,0,1-2.48.3c-1.044.065-2.539.234-4.194.452s-3.47.484-5.154.742c-3.369.516-6.216,1-6.216,1s-3.538.646-7.675,1.485c-2.069.42-4.287.887-6.288,1.347s-3.785.912-4.985,1.3a29.742,29.742,0,0,0-2.884,1.072,21.082,21.082,0,0,0-2.084,1.066c-.666.383-1.356.809-2.227,1.32s-1.923,1.108-3.313,1.835c-.695.363-1.321.665-1.895.918s-1.1.458-1.58.627a18.652,18.652,0,0,1-2.6.7c-.808.161-1.6.286-2.5.48a26.136,26.136,0,0,0-3.175.891c-.628.218-1.37.435-2.192.647s-1.722.421-2.668.622c-1.891.4-3.961.773-5.934,1.087s-3.849.572-5.352.748a28.159,28.159,0,0,1-3.114.252c-.962-.032-2.406-.258-3.912-.452-.753-.1-1.522-.185-2.254-.238a13.988,13.988,0,0,0-2.032-.021,8.993,8.993,0,0,0-2.036.468c-.745.246-1.551.565-2.4.9s-1.738.7-2.651,1.025a23.536,23.536,0,0,1-2.791.831,8.027,8.027,0,0,0-1.864.791c-.756.408-1.63.946-2.576,1.569s-1.962,1.333-3,2.083-2.1,1.543-3.141,2.334c-2.077,1.581-4.055,3.155-5.553,4.369s-2.516,2.069-2.671,2.215a43.8,43.8,0,0,0-2.744,3.9c-1.342,2.025-2.933,4.494-4.242,6.56-.327.516-.613,1.023-.865,1.522a16.168,16.168,0,0,0-.655,1.483,18.044,18.044,0,0,0-.835,2.933c-.2.984-.332,1.985-.453,3.03s-.228,2.134-.374,3.3a14.162,14.162,0,0,0-.112,1.6,11.129,11.129,0,0,0,.493,3.441c.175.593.359,1.1.477,1.575a4.21,4.21,0,0,1,.119.7,2.816,2.816,0,0,1-.033.691c-.084.468-.14.863-.169,1.23a7.6,7.6,0,0,0-.011,1.061,25.74,25.74,0,0,0,.38,2.679,13.3,13.3,0,0,1,.189,1.822,10.49,10.49,0,0,1-.1,1.858,8.883,8.883,0,0,1-1.414,3.679,5.6,5.6,0,0,1-.714.856,9.116,9.116,0,0,1-.915.788,21.012,21.012,0,0,1-2.234,1.438c-.8.46-1.636.908-2.439,1.366a22.19,22.19,0,0,0-2.245,1.426,5.551,5.551,0,0,0-1.052,1.12,16.824,16.824,0,0,0-1.11,1.732c-.374.658-.748,1.385-1.116,2.149s-.727,1.566-1.07,2.373c-.687,1.614-1.308,3.248-1.8,4.643-.239.684-.32,1.036-.487,1.576Z" transform="translate(404.57 -115.02)" fill="#fff"/>
      </g>
      <g transform="matrix(1, 0, 0, 1, 19.43, 115.02)" filter="url(#rect950)">
        <path id="rect950-2" data-name="rect950" d="M358.439,115.844l-3.412,18.935h19.9l-13.855,76.767h18.934l13.855-76.767h19.828l3.412-18.935H358.439Z" transform="translate(541.98 -113.64)" fill="#b61b10"/>
      </g>
      <g transform="matrix(1, 0, 0, 1, 19.43, 115.02)" filter="url(#circle1612)">
        <path id="circle1612-2" data-name="circle1612" d="M350.555,119.413a9.539,9.539,0,0,0-5.375,17.356l-.047-.028-.118-.073-.117-.076-.116-.077-.115-.079A18.153,18.153,0,0,0,373.422,121.7c0-.422-.015-.846-.045-1.269l-.047.1-.061.125-.063.124-.065.123-.066.122-.068.121-.07.12-.072.12-.074.118-.075.117-.077.116-.079.115-.08.113-.082.113-.084.111-.085.11-.087.109-.088.108-.09.106-.091.1-.092.1-.095.1-.1.1-.1.1-.1.1-.1.1-.1.095-.1.094-.1.092-.106.09-.107.089-.109.087-.109.086-.111.084-.112.083-.113.081-.114.08-.116.077-.117.076-.118.074-.119.072-.12.071-.121.069-.122.067-.123.065-.124.064-.124.062-.126.06-.127.058-.127.056-.128.054-.129.053-.13.05-.13.049-.131.047-.132.045-.133.043-.133.041-.134.039-.134.037-.135.035-.135.034-.136.031-.136.029-.136.027-.137.024-.137.024-.137.021-.138.019-.138.019-.139.016-.139.013-.139.011-.139.008-.139.008-.139.005-.139,0h-.247l-.139,0-.139-.005-.139-.005-.139-.008-.139-.011-.139-.013-.139-.016-.138-.016-.138-.019-.137-.021-.137-.024-.137-.024-.137-.027-.136-.028-.136-.031-.135-.033-.135-.035-.134-.037-.134-.038-.134-.041-.133-.043-.132-.044-.131-.047-.131-.048-.13-.05-.129-.052-.128-.054-.127-.056-.127-.057-.126-.06-.124-.062-.124-.063-.123-.065-.122-.067-.121-.068-.12-.071-.119-.072-.118-.074-.117-.075-.116-.078-.115-.079-.113-.081-.113-.082-.111-.084-.11-.085-.108-.087-.082-.067a9.539,9.539,0,0,0-7.986-4.322h-.091Z" transform="translate(518.58 -107.64)" fill="#fff"/>
      </g>
    </g>
  </g>
</svg>
