<?xml version="1.0" encoding="UTF-8" standalone="no"?>
<svg
   xmlns:dc="http://purl.org/dc/elements/1.1/"
   xmlns:cc="http://creativecommons.org/ns#"
   xmlns:rdf="http://www.w3.org/1999/02/22-rdf-syntax-ns#"
   xmlns:svg="http://www.w3.org/2000/svg"
   xmlns="http://www.w3.org/2000/svg"
   xmlns:sodipodi="http://sodipodi.sourceforge.net/DTD/sodipodi-0.dtd"
   xmlns:inkscape="http://www.inkscape.org/namespaces/inkscape"
   width="1500"
   height="1000"
   viewBox="0 0 396.875 264.58333"
   version="1.1"
   id="svg8"
   inkscape:version="1.0.2 (e86c870879, 2021-01-15, custom)"
   sodipodi:docname="wabVectorLogo.svg">
  <defs
     id="defs2" />
  <sodipodi:namedview
     id="base"
     pagecolor="#ffffff"
     bordercolor="#666666"
     borderopacity="1.0"
     inkscape:pageopacity="0.0"
     inkscape:pageshadow="2"
     inkscape:zoom="0.37644111"
     inkscape:cx="-35.182883"
     inkscape:cy="745.44287"
     inkscape:document-units="px"
     inkscape:current-layer="g1782"
     inkscape:document-rotation="0"
     showgrid="false"
     units="px"
     showguides="true"
     inkscape:guide-bbox="true"
     inkscape:window-width="1920"
     inkscape:window-height="1027"
     inkscape:window-x="-8"
     inkscape:window-y="22"
     inkscape:window-maximized="1" />
  <metadata
     id="metadata5">
    <rdf:RDF>
      <cc:Work
         rdf:about="">
        <dc:format>image/svg+xml</dc:format>
        <dc:type
           rdf:resource="http://purl.org/dc/dcmitype/StillImage" />
        <dc:title></dc:title>
      </cc:Work>
    </rdf:RDF>
  </metadata>
  <g
     inkscape:label="Warstwa 1"
     inkscape:groupmode="layer"
     id="layer1">
    <path
       id="path1597"
       style="fill:#ff5555;fill-opacity:1;stroke-width:1.19353;paint-order:stroke fill markers"
       d="m -379.86541,152.47726 v 87.87938 h 17.38757 l 9.59114,-9.59062 9.59063,9.59062 h 17.38705 v -87.87938 h -17.38705 v 63.29019 l -9.59114,-9.59115 -9.59063,9.59063 v -63.28967 z" />
    <path
       id="path1599"
       style="fill:#ff5555;fill-opacity:1;stroke-width:1.19353;paint-order:stroke fill markers"
       d="m -316.66772,152.44108 v 53.73522 34.14469 h 17.38705 V 206.1763 h 19.18229 v 34.14469 h 17.38706 v -87.87991 h -0.0946 -36.47478 z m 27.25622,17.38034 v 5.1e-4 c 0.42814,0 0.83608,0.0859 1.20716,0.24288 0.37109,0.15702 0.70528,0.38489 0.98599,0.6656 0.28071,0.2807 0.50753,0.61489 0.66456,0.98598 0.15702,0.37108 0.24391,0.77903 0.24391,1.20716 0,0.36512 -0.0744,0.70718 -0.19069,1.03353 h 0.19069 c 0.28516,0 0.55727,0.058 0.8046,0.16278 0.24734,0.10476 0.47011,0.25669 0.65732,0.4439 0.1872,0.1872 0.33863,0.40947 0.44339,0.65681 0.10476,0.24734 0.16278,0.51945 0.16278,0.8046 0,0.31019 -0.0704,0.60316 -0.19482,0.8661 -0.1244,0.26294 -0.30286,0.49569 -0.51935,0.68471 h 0.45578 c 0.32151,0 0.6275,0.0658 0.90589,0.18345 0.27839,0.11763 0.52905,0.28773 0.73949,0.49816 0.21043,0.21043 0.38052,0.4611 0.49816,0.73949 0.11763,0.27839 0.18294,0.58439 0.18294,0.90589 0,0.18902 -0.0233,0.37242 -0.0662,0.54777 -0.043,0.17534 -0.10598,0.34279 -0.18655,0.49971 -0.16116,0.31383 -0.39228,0.58521 -0.67179,0.79685 v 5.2e-4 c 0.27708,0.0444 0.53806,0.13727 0.77359,0.26975 0.23552,0.13248 0.44565,0.30471 0.62116,0.50746 0.17549,0.20276 0.31642,0.43617 0.41341,0.69143 0.097,0.25527 0.15038,0.53269 0.15038,0.82269 0,0.3215 -0.0653,0.62699 -0.18294,0.90537 -0.11763,0.27839 -0.28772,0.52957 -0.49816,0.74001 -0.21043,0.21043 -0.4611,0.38052 -0.73949,0.49816 -0.27839,0.11763 -0.58439,0.18242 -0.90589,0.18242 h -11.89075 c -0.32151,0 -0.62801,-0.0648 -0.9064,-0.18242 -0.27838,-0.11764 -0.52906,-0.28773 -0.73949,-0.49816 -0.21043,-0.21044 -0.38052,-0.46162 -0.49816,-0.74001 -0.11763,-0.27838 -0.18242,-0.58387 -0.18242,-0.90537 0,-0.29 0.0529,-0.56742 0.14986,-0.82269 0.097,-0.25526 0.23792,-0.48867 0.41341,-0.69143 0.17549,-0.20275 0.38563,-0.37498 0.62115,-0.50746 0.23553,-0.13248 0.49652,-0.22532 0.7736,-0.26975 -0.2795,-0.21164 -0.51063,-0.48354 -0.67179,-0.79737 -0.0806,-0.15692 -0.14359,-0.32437 -0.18655,-0.49971 -0.043,-0.17535 -0.0661,-0.35875 -0.0661,-0.54777 0,-0.32151 0.0653,-0.6275 0.18293,-0.90589 0.11763,-0.27839 0.28773,-0.52906 0.49816,-0.73949 0.21044,-0.21043 0.4611,-0.38053 0.73949,-0.49816 0.2784,-0.11764 0.58438,-0.18345 0.90589,-0.18345 h 0.45579 c -0.21649,-0.18903 -0.39495,-0.42075 -0.51935,-0.68368 -0.12441,-0.26294 -0.19482,-0.55693 -0.19482,-0.86713 0,-0.28515 0.058,-0.55623 0.16278,-0.80357 0.10476,-0.24734 0.25618,-0.47063 0.44338,-0.65784 0.18722,-0.1872 0.41051,-0.33914 0.65785,-0.4439 0.24734,-0.10476 0.51892,-0.16278 0.80408,-0.16278 h 0.51677 c 0.35704,0 0.69736,-0.0723 1.00665,-0.20309 0.30928,-0.13076 0.58781,-0.31907 0.82166,-0.55293 0.23386,-0.23386 0.42321,-0.51238 0.55397,-0.82166 0.13077,-0.30929 0.20309,-0.64962 0.20309,-1.00666 0,-0.28112 -0.0462,-0.55062 -0.13023,-0.80305 -0.084,-0.25244 -0.20624,-0.48805 -0.35811,-0.6997 0.15834,-0.0259 0.32032,-0.0486 0.48834,-0.0486 z" />
    <path
       id="path1601"
       style="fill:#ff5555;fill-opacity:1;stroke-width:1.19353;paint-order:stroke fill markers"
       d="m -253.16772,152.47726 v 87.87938 h 17.38705 36.4753 v -53.73522 h -5.72471 v -34.14416 h -30.75059 z m 17.42374,12.0189 h 19.88974 v 10.10636 h -19.88974 z m -0.10749,41.68014 h 23.27197 v 14.62547 h -23.27197 z" />
    <g
       id="g1656"
       transform="translate(12.305714,23.736278)">
      <g
         id="g1782">
        <g
           id="g1606"
           transform="matrix(1,0,-0.16501071,1,17.912802,0)">
          <path
             id="rect1527"
             style="fill:#ff5555;fill-opacity:1;stroke-width:4.51098;paint-order:stroke fill markers"
             d="m 351.24805,244.28516 v 332.14257 h 65.71679 l 36.25,-36.24804 36.24805,36.24804 h 65.71484 V 244.28516 h -65.71484 v 239.20703 l -36.25,-36.25 -36.24805,36.24804 V 244.28516 Z"
             transform="scale(0.26458333)" />
          <path
             id="rect1535"
             style="fill:#ff5555;fill-opacity:1;stroke-width:4.51098;paint-order:stroke fill markers"
             d="m 590.10547,244.14844 v 203.09375 129.05078 h 65.71484 V 447.24219 h 72.5 v 129.05078 h 65.71485 V 244.14844 h -0.35743 -137.85742 z m 103.01562,65.68945 v 0.002 c 1.61817,0 3.16,0.32462 4.5625,0.91797 1.40255,0.59346 2.66562,1.45468 3.72657,2.51563 1.06095,1.06095 1.91825,2.32402 2.51172,3.72656 0.59346,1.40251 0.92187,2.94437 0.92187,4.5625 0,1.37998 -0.28122,2.6728 -0.7207,3.90625 h 0.7207 c 1.07777,0 2.10623,0.21922 3.04102,0.61523 0.93482,0.39595 1.77681,0.97017 2.48437,1.67774 0.70753,0.70753 1.27984,1.54759 1.67578,2.48242 0.39595,0.93483 0.61524,1.96328 0.61524,3.04102 0,1.17237 -0.26608,2.27964 -0.73633,3.27343 -0.47018,0.99379 -1.14466,1.87349 -1.96289,2.58789 h 1.72265 c 1.21512,0 2.37165,0.24874 3.42383,0.69336 1.05218,0.44459 1.99956,1.08749 2.79492,1.88282 0.79533,0.79532 1.43819,1.74274 1.88282,2.79492 0.44458,1.05218 0.6914,2.20871 0.6914,3.42383 0,0.7144 -0.0879,1.40757 -0.25,2.07031 -0.16252,0.6627 -0.40056,1.29559 -0.70508,1.88867 -0.6091,1.18613 -1.48264,2.21182 -2.53906,3.01172 v 0.002 c 1.04723,0.16781 2.03364,0.51882 2.92383,1.01953 0.89015,0.50072 1.68435,1.15167 2.34766,1.91797 0.66327,0.76634 1.19592,1.64852 1.5625,2.61328 0.36661,0.9648 0.56836,2.01332 0.56836,3.10938 0,1.21512 -0.24679,2.36973 -0.69141,3.42187 -0.44459,1.05219 -1.08745,2.00151 -1.88281,2.79688 -0.79533,0.79532 -1.74274,1.43819 -2.79493,1.88281 -1.05218,0.44459 -2.20871,0.68945 -3.42382,0.68945 h -44.94141 c -1.21516,0 -2.3736,-0.24486 -3.42578,-0.68945 -1.05215,-0.44462 -1.9996,-1.08749 -2.79492,-1.88281 -0.79533,-0.79537 -1.43819,-1.74469 -1.88281,-2.79688 -0.44459,-1.05214 -0.68946,-2.20675 -0.68946,-3.42187 0,-1.09606 0.19995,-2.14458 0.56641,-3.10938 0.36661,-0.96476 0.89923,-1.84694 1.5625,-2.61328 0.66327,-0.7663 1.4575,-1.41725 2.34765,-1.91797 0.89016,-0.50071 1.8766,-0.8516 2.92383,-1.01953 -1.05638,-0.7999 -1.92995,-1.82754 -2.53906,-3.01367 -0.30463,-0.59308 -0.54271,-1.22597 -0.70508,-1.88867 -0.16252,-0.66274 -0.25,-1.35591 -0.25,-2.07031 0,-1.21516 0.24682,-2.37165 0.69141,-3.42383 0.44458,-1.05218 1.08748,-1.9996 1.88281,-2.79492 0.79533,-0.79533 1.74274,-1.43823 2.79492,-1.88282 1.05219,-0.44462 2.20867,-0.69336 3.42383,-0.69336 h 1.72266 c -0.81823,-0.71444 -1.49272,-1.59023 -1.96289,-2.58398 -0.47021,-0.99379 -0.73633,-2.10493 -0.73633,-3.27734 0,-1.07774 0.21918,-2.10228 0.61523,-3.03711 0.39595,-0.93483 0.96822,-1.77877 1.67578,-2.48633 0.70757,-0.70753 1.5515,-1.28179 2.48633,-1.67774 0.93483,-0.39594 1.96129,-0.61523 3.03906,-0.61523 h 1.95313 c 1.34944,0 2.63572,-0.27325 3.80469,-0.76758 1.16893,-0.49421 2.22162,-1.20596 3.10547,-2.08984 0.88388,-0.88388 1.59953,-1.93654 2.09375,-3.10547 0.49424,-1.16897 0.76757,-2.45525 0.76757,-3.80469 0,-1.0625 -0.17463,-2.08109 -0.49218,-3.03515 -0.31748,-0.95411 -0.77952,-1.8446 -1.35352,-2.64454 0.59845,-0.0979 1.21067,-0.18359 1.8457,-0.18359 z"
             transform="scale(0.26458333)" />
          <path
             id="path1592"
             style="fill:#ff5555;fill-opacity:1;stroke-width:4.51098;paint-order:stroke fill markers"
             d="m 830.10547,244.28516 v 332.14257 h 65.71484 137.85939 V 373.33398 H 1012.043 V 244.28516 H 895.82031 Z m 65.85351,45.42578 h 75.17383 v 38.19726 h -75.17383 z m -0.40625,157.53125 h 87.95704 v 55.27734 h -87.95704 z"
             transform="scale(0.26458333)" />
        </g>
        <path
           id="circle1612"
           style="fill:#ff5555;fill-opacity:1;stroke-width:8.63195;paint-order:stroke fill markers"
           d="m 1077.875,244.53906 a 33.21428,33.21428 0 0 0 -32.8965,33.21289 33.21428,33.21428 0 0 0 14.1797,27.22071 33.21428,33.21428 0 0 1 -0.1621,-0.0977 33.21428,33.21428 0 0 1 -0.4121,-0.25586 33.21428,33.21428 0 0 1 -0.4063,-0.26367 33.21428,33.21428 0 0 1 -0.4043,-0.26758 33.21428,33.21428 0 0 1 -0.4004,-0.27344 63.21428,63.21428 0 0 0 36.9122,11.90039 63.21428,63.21428 0 0 0 63.2148,-63.2148 63.21428,63.21428 0 0 0 -0.1562,-4.42969 33.21428,33.21428 0 0 1 -0.1622,0.34571 33.21428,33.21428 0 0 1 -0.2128,0.43554 33.21428,33.21428 0 0 1 -0.2188,0.43164 33.21428,33.21428 0 0 1 -0.2266,0.42969 33.21428,33.21428 0 0 1 -0.2304,0.42578 33.21428,33.21428 0 0 1 -0.2383,0.42188 33.21428,33.21428 0 0 1 -0.2442,0.41797 33.21428,33.21428 0 0 1 -0.25,0.41601 33.21428,33.21428 0 0 1 -0.2558,0.41211 33.21428,33.21428 0 0 1 -0.2617,0.40625 33.21428,33.21428 0 0 1 -0.2676,0.4043 33.21428,33.21428 0 0 1 -0.2754,0.40039 33.21428,33.21428 0 0 1 -0.2793,0.39453 33.21428,33.21428 0 0 1 -0.2852,0.39258 33.21428,33.21428 0 0 1 -0.291,0.38672 33.21428,33.21428 0 0 1 -0.2968,0.38281 33.21428,33.21428 0 0 1 -0.3028,0.3789 33.21428,33.21428 0 0 1 -0.3066,0.375 33.21428,33.21428 0 0 1 -0.3145,0.36915 33.21428,33.21428 0 0 1 -0.3183,0.36523 33.21428,33.21428 0 0 1 -0.3223,0.36133 33.21428,33.21428 0 0 1 -0.3301,0.35547 33.21428,33.21428 0 0 1 -0.334,0.35156 33.21428,33.21428 0 0 1 -0.3398,0.3457 33.21428,33.21428 0 0 1 -0.3438,0.3418 33.21428,33.21428 0 0 1 -0.3496,0.33594 33.21428,33.21428 0 0 1 -0.3535,0.33008 33.21428,33.21428 0 0 1 -0.3594,0.32617 33.21428,33.21428 0 0 1 -0.3632,0.32031 33.21428,33.21428 0 0 1 -0.3692,0.31445 33.21428,33.21428 0 0 1 -0.373,0.31055 33.21428,33.21428 0 0 1 -0.377,0.30273 33.21428,33.21428 0 0 1 -0.3808,0.29883 33.21428,33.21428 0 0 1 -0.3868,0.29297 33.21428,33.21428 0 0 1 -0.3906,0.28711 33.21428,33.21428 0 0 1 -0.3945,0.28125 33.21428,33.21428 0 0 1 -0.3984,0.27734 33.21428,33.21428 0 0 1 -0.4024,0.26953 33.21428,33.21428 0 0 1 -0.4062,0.26368 33.21428,33.21428 0 0 1 -0.4102,0.25781 33.21428,33.21428 0 0 1 -0.4141,0.25195 33.21428,33.21428 0 0 1 -0.416,0.2461 33.21428,33.21428 0 0 1 -0.4218,0.24023 33.21428,33.21428 0 0 1 -0.4239,0.23438 33.21428,33.21428 0 0 1 -0.4277,0.22656 33.21428,33.21428 0 0 1 -0.4317,0.22265 33.21428,33.21428 0 0 1 -0.4335,0.21485 33.21428,33.21428 0 0 1 -0.4375,0.20898 33.21428,33.21428 0 0 1 -0.4415,0.20117 33.21428,33.21428 0 0 1 -0.4433,0.19532 33.21428,33.21428 0 0 1 -0.4453,0.18945 33.21428,33.21428 0 0 1 -0.4492,0.18359 33.21428,33.21428 0 0 1 -0.4512,0.17578 33.21428,33.21428 0 0 1 -0.4551,0.16993 33.21428,33.21428 0 0 1 -0.4551,0.16211 33.21428,33.21428 0 0 1 -0.459,0.15625 33.21428,33.21428 0 0 1 -0.4609,0.15039 33.21428,33.21428 0 0 1 -0.4629,0.14258 33.21428,33.21428 0 0 1 -0.4668,0.13671 33.21428,33.21428 0 0 1 -0.4668,0.12891 33.21428,33.21428 0 0 1 -0.4687,0.12109 33.21428,33.21428 0 0 1 -0.4707,0.11719 33.21428,33.21428 0 0 1 -0.4727,0.10742 33.21428,33.21428 0 0 1 -0.4726,0.10157 33.21428,33.21428 0 0 1 -0.4747,0.0957 33.21428,33.21428 0 0 1 -0.4765,0.0879 33.21428,33.21428 0 0 1 -0.4785,0.0801 33.21428,33.21428 0 0 1 -0.4785,0.0742 33.21428,33.21428 0 0 1 -0.4805,0.0664 33.21428,33.21428 0 0 1 -0.4805,0.0605 33.21428,33.21428 0 0 1 -0.4824,0.0527 33.21428,33.21428 0 0 1 -0.4824,0.0469 33.21428,33.21428 0 0 1 -0.4825,0.0391 33.21428,33.21428 0 0 1 -0.4843,0.0312 33.21428,33.21428 0 0 1 -0.4844,0.0254 33.21428,33.21428 0 0 1 -0.4844,0.0176 33.21428,33.21428 0 0 1 -0.4843,0.01 33.21428,33.21428 0 0 1 -0.4844,0.004 33.21428,33.21428 0 0 1 -0.377,-0.002 33.21428,33.21428 0 0 1 -0.4844,-0.01 33.21428,33.21428 0 0 1 -0.4843,-0.0156 33.21428,33.21428 0 0 1 -0.4844,-0.0234 33.21428,33.21428 0 0 1 -0.4824,-0.0312 33.21428,33.21428 0 0 1 -0.4844,-0.0371 33.21428,33.21428 0 0 1 -0.4824,-0.043 33.21428,33.21428 0 0 1 -0.4824,-0.0527 33.21428,33.21428 0 0 1 -0.4805,-0.0586 33.21428,33.21428 0 0 1 -0.4805,-0.0645 33.21428,33.21428 0 0 1 -0.4785,-0.0723 33.21428,33.21428 0 0 1 -0.4785,-0.0801 33.21428,33.21428 0 0 1 -0.4766,-0.0859 33.21428,33.21428 0 0 1 -0.4765,-0.0937 33.21428,33.21428 0 0 1 -0.4727,-0.0996 33.21428,33.21428 0 0 1 -0.4727,-0.10742 33.21428,33.21428 0 0 1 -0.4707,-0.11328 33.21428,33.21428 0 0 1 -0.4707,-0.1211 33.21428,33.21428 0 0 1 -0.4668,-0.1289 33.21428,33.21428 0 0 1 -0.4648,-0.13282 33.21428,33.21428 0 0 1 -0.4648,-0.14257 33.21428,33.21428 0 0 1 -0.461,-0.14844 33.21428,33.21428 0 0 1 -0.459,-0.1543 33.21428,33.21428 0 0 1 -0.457,-0.16211 33.21428,33.21428 0 0 1 -0.4551,-0.16797 33.21428,33.21428 0 0 1 -0.4511,-0.17382 33.21428,33.21428 0 0 1 -0.4493,-0.18164 33.21428,33.21428 0 0 1 -0.4472,-0.1875 33.21428,33.21428 0 0 1 -0.4434,-0.19532 33.21428,33.21428 0 0 1 -0.4414,-0.19922 33.21428,33.21428 0 0 1 -0.4394,-0.20703 33.21428,33.21428 0 0 1 -0.4336,-0.21484 33.21428,33.21428 0 0 1 -0.4317,-0.21875 33.21428,33.21428 0 0 1 -0.4297,-0.22656 33.21428,33.21428 0 0 1 -0.4257,-0.23243 33.21428,33.21428 0 0 1 -0.4219,-0.23828 33.21428,33.21428 0 0 1 -0.418,-0.24609 33.21428,33.21428 0 0 1 -0.4141,-0.25 33.21428,33.21428 0 0 1 -0.4101,-0.25781 33.21428,33.21428 0 0 1 -0.4082,-0.26172 33.21428,33.21428 0 0 1 -0.4024,-0.26953 33.21428,33.21428 0 0 1 -0.4003,-0.27344 33.21428,33.21428 0 0 1 -0.3946,-0.28125 33.21428,33.21428 0 0 1 -0.3926,-0.28516 33.21428,33.21428 0 0 1 -0.3867,-0.29296 33.21428,33.21428 0 0 1 -0.3828,-0.29688 33.21428,33.21428 0 0 1 -0.3769,-0.30273 33.21428,33.21428 0 0 1 -0.2852,-0.23438 33.21428,33.21428 0 0 0 -27.8066,-15.04883 33.21428,33.21428 0 0 0 -0.3184,0 z"
           transform="scale(0.26458333)" />
        <path
           style="fill:none;stroke:#ff5555;stroke-width:5.91317;stroke-linecap:square;stroke-linejoin:round;stroke-miterlimit:4;stroke-dasharray:none;stroke-opacity:1;paint-order:markers fill stroke"
           d="m 70.152252,90.4988 c 28.996871,-22.118144 -12.550667,36.95201 6.870861,40.86406 5.290208,1.06559 10.591163,0.68404 15.114795,-3.33034"
           id="path1648" />
      </g>
    </g>
  </g>
</svg>
