<?xml version="1.0" encoding="UTF-8" standalone="no"?>
<svg
   xmlns:dc="http://purl.org/dc/elements/1.1/"
   xmlns:cc="http://creativecommons.org/ns#"
   xmlns:rdf="http://www.w3.org/1999/02/22-rdf-syntax-ns#"
   xmlns:svg="http://www.w3.org/2000/svg"
   xmlns="http://www.w3.org/2000/svg"
   xmlns:sodipodi="http://sodipodi.sourceforge.net/DTD/sodipodi-0.dtd"
   xmlns:inkscape="http://www.inkscape.org/namespaces/inkscape"
   width="1500"
   height="600"
   viewBox="0 0 396.87499 158.74999"
   version="1.1"
   id="svg8"
   inkscape:version="1.0.2 (e86c870879, 2021-01-15, custom)"
   sodipodi:docname="wabVectorLogoOriginal.svg">
  <defs
     id="defs2" />
  <sodipodi:namedview
     id="base"
     pagecolor="#ffffff"
     bordercolor="#666666"
     borderopacity="1.0"
     inkscape:pageopacity="0.0"
     inkscape:pageshadow="2"
     inkscape:zoom="0.53236812"
     inkscape:cx="588.2593"
     inkscape:cy="645.99758"
     inkscape:document-units="px"
     inkscape:current-layer="layer1"
     inkscape:document-rotation="0"
     showgrid="false"
     units="px"
     showguides="true"
     inkscape:guide-bbox="true"
     inkscape:window-width="1920"
     inkscape:window-height="1027"
     inkscape:window-x="-8"
     inkscape:window-y="22"
     inkscape:window-maximized="1"
     width="1500mm" />
  <metadata
     id="metadata5">
    <rdf:RDF>
      <cc:Work
         rdf:about="">
        <dc:format>image/svg+xml</dc:format>
        <dc:type
           rdf:resource="http://purl.org/dc/dcmitype/StillImage" />
        <dc:title></dc:title>
      </cc:Work>
    </rdf:RDF>
  </metadata>
  <g
     inkscape:label="Warstwa 1"
     inkscape:groupmode="layer"
     id="layer1">
    <g
       id="g859"
       transform="matrix(1.6164659,0,0,1.6164659,-129.56031,-135.02303)">
      <path
         id="circle1612"
         style="fill:#ffffff;fill-opacity:1;stroke-width:2.28387;paint-order:stroke fill markers"
         d="m 301.96641,90.425209 a 8.7879448,8.7879448 0 0 0 -8.70386,8.787577 8.7879448,8.7879448 0 0 0 3.75171,7.202154 8.7879448,8.7879448 0 0 1 -0.0429,-0.0258 8.7879448,8.7879448 0 0 1 -0.10904,-0.0677 8.7879448,8.7879448 0 0 1 -0.1075,-0.0698 8.7879448,8.7879448 0 0 1 -0.10697,-0.0708 8.7879448,8.7879448 0 0 1 -0.10594,-0.0723 16.725445,16.725445 0 0 0 9.76636,3.14864 16.725445,16.725445 0 0 0 16.72558,-16.725589 16.725445,16.725445 0 0 0 -0.0413,-1.172022 8.7879448,8.7879448 0 0 1 -0.0429,0.09147 8.7879448,8.7879448 0 0 1 -0.0563,0.115236 8.7879448,8.7879448 0 0 1 -0.0579,0.114205 8.7879448,8.7879448 0 0 1 -0.06,0.113689 8.7879448,8.7879448 0 0 1 -0.061,0.112654 8.7879448,8.7879448 0 0 1 -0.0631,0.111623 8.7879448,8.7879448 0 0 1 -0.0646,0.110588 8.7879448,8.7879448 0 0 1 -0.0661,0.110069 8.7879448,8.7879448 0 0 1 -0.0677,0.109037 8.7879448,8.7879448 0 0 1 -0.0692,0.107487 8.7879448,8.7879448 0 0 1 -0.0708,0.106971 8.7879448,8.7879448 0 0 1 -0.0729,0.105937 8.7879448,8.7879448 0 0 1 -0.0739,0.104386 8.7879448,8.7879448 0 0 1 -0.0755,0.10387 8.7879448,8.7879448 0 0 1 -0.077,0.10232 8.7879448,8.7879448 0 0 1 -0.0785,0.101285 8.7879448,8.7879448 0 0 1 -0.0801,0.10025 8.7879448,8.7879448 0 0 1 -0.0811,0.09922 8.7879448,8.7879448 0 0 1 -0.0832,0.09767 8.7879448,8.7879448 0 0 1 -0.0842,0.09663 8.7879448,8.7879448 0 0 1 -0.0853,0.0956 8.7879448,8.7879448 0 0 1 -0.0873,0.09405 8.7879448,8.7879448 0 0 1 -0.0884,0.09302 8.7879448,8.7879448 0 0 1 -0.0899,0.09147 8.7879448,8.7879448 0 0 1 -0.091,0.09043 8.7879448,8.7879448 0 0 1 -0.0925,0.08888 8.7879448,8.7879448 0 0 1 -0.0935,0.08733 8.7879448,8.7879448 0 0 1 -0.0951,0.0863 8.7879448,8.7879448 0 0 1 -0.0961,0.08475 8.7879448,8.7879448 0 0 1 -0.0977,0.0832 8.7879448,8.7879448 0 0 1 -0.0987,0.08217 8.7879448,8.7879448 0 0 1 -0.0997,0.0801 8.7879448,8.7879448 0 0 1 -0.10075,0.07906 8.7879448,8.7879448 0 0 1 -0.10234,0.07751 8.7879448,8.7879448 0 0 1 -0.10335,0.07597 8.7879448,8.7879448 0 0 1 -0.10438,0.07441 8.7879448,8.7879448 0 0 1 -0.10541,0.07338 8.7879448,8.7879448 0 0 1 -0.10647,0.07131 8.7879448,8.7879448 0 0 1 -0.10747,0.06977 8.7879448,8.7879448 0 0 1 -0.10853,0.06821 8.7879448,8.7879448 0 0 1 -0.10957,0.06666 8.7879448,8.7879448 0 0 1 -0.11006,0.06511 8.7879448,8.7879448 0 0 1 -0.1116,0.06356 8.7879448,8.7879448 0 0 1 -0.11216,0.06201 8.7879448,8.7879448 0 0 1 -0.11316,0.05994 8.7879448,8.7879448 0 0 1 -0.11422,0.05891 8.7879448,8.7879448 0 0 1 -0.1147,0.05685 8.7879448,8.7879448 0 0 1 -0.11576,0.05529 8.7879448,8.7879448 0 0 1 -0.11681,0.05323 8.7879448,8.7879448 0 0 1 -0.11729,0.05168 8.7879448,8.7879448 0 0 1 -0.11782,0.05013 8.7879448,8.7879448 0 0 1 -0.11885,0.04857 8.7879448,8.7879448 0 0 1 -0.11938,0.04651 8.7879448,8.7879448 0 0 1 -0.12041,0.04496 8.7879448,8.7879448 0 0 1 -0.12041,0.04289 8.7879448,8.7879448 0 0 1 -0.12145,0.04134 8.7879448,8.7879448 0 0 1 -0.12194,0.03979 8.7879448,8.7879448 0 0 1 -0.12248,0.03772 8.7879448,8.7879448 0 0 1 -0.12351,0.03617 8.7879448,8.7879448 0 0 1 -0.1235,0.03411 8.7879448,8.7879448 0 0 1 -0.12401,0.03204 8.7879448,8.7879448 0 0 1 -0.12454,0.03101 8.7879448,8.7879448 0 0 1 -0.12507,0.02842 8.7879448,8.7879448 0 0 1 -0.12504,0.02687 8.7879448,8.7879448 0 0 1 -0.1256,0.02532 8.7879448,8.7879448 0 0 1 -0.12607,0.02326 8.7879448,8.7879448 0 0 1 -0.12661,0.02119 8.7879448,8.7879448 0 0 1 -0.1266,0.01963 8.7879448,8.7879448 0 0 1 -0.12713,0.01757 8.7879448,8.7879448 0 0 1 -0.12714,0.01601 8.7879448,8.7879448 0 0 1 -0.12763,0.01394 8.7879448,8.7879448 0 0 1 -0.12764,0.01241 8.7879448,8.7879448 0 0 1 -0.12766,0.01035 8.7879448,8.7879448 0 0 1 -0.12813,0.0083 8.7879448,8.7879448 0 0 1 -0.12817,0.0067 8.7879448,8.7879448 0 0 1 -0.12816,0.0047 8.7879448,8.7879448 0 0 1 -0.12814,0.0026 8.7879448,8.7879448 0 0 1 -0.12816,0.0011 8.7879448,8.7879448 0 0 1 -0.0998,-5.29e-4 8.7879448,8.7879448 0 0 1 -0.12817,-0.0026 8.7879448,8.7879448 0 0 1 -0.12813,-0.0041 8.7879448,8.7879448 0 0 1 -0.12817,-0.0062 8.7879448,8.7879448 0 0 1 -0.12763,-0.0083 8.7879448,8.7879448 0 0 1 -0.12817,-0.0098 8.7879448,8.7879448 0 0 1 -0.12763,-0.01138 8.7879448,8.7879448 0 0 1 -0.12764,-0.01394 8.7879448,8.7879448 0 0 1 -0.12713,-0.01551 8.7879448,8.7879448 0 0 1 -0.12713,-0.01706 8.7879448,8.7879448 0 0 1 -0.12661,-0.01913 8.7879448,8.7879448 0 0 1 -0.1266,-0.02119 8.7879448,8.7879448 0 0 1 -0.1261,-0.02273 8.7879448,8.7879448 0 0 1 -0.12607,-0.02479 8.7879448,8.7879448 0 0 1 -0.12507,-0.02635 8.7879448,8.7879448 0 0 1 -0.12507,-0.02842 8.7879448,8.7879448 0 0 1 -0.12454,-0.02997 8.7879448,8.7879448 0 0 1 -0.12454,-0.03204 8.7879448,8.7879448 0 0 1 -0.12351,-0.0341 8.7879448,8.7879448 0 0 1 -0.12297,-0.03514 8.7879448,8.7879448 0 0 1 -0.12298,-0.03772 8.7879448,8.7879448 0 0 1 -0.12198,-0.03927 8.7879448,8.7879448 0 0 1 -0.12144,-0.04083 8.7879448,8.7879448 0 0 1 -0.12091,-0.04289 8.7879448,8.7879448 0 0 1 -0.12042,-0.04444 8.7879448,8.7879448 0 0 1 -0.11935,-0.04599 8.7879448,8.7879448 0 0 1 -0.11888,-0.04806 8.7879448,8.7879448 0 0 1 -0.11832,-0.04961 8.7879448,8.7879448 0 0 1 -0.11731,-0.05168 8.7879448,8.7879448 0 0 1 -0.11679,-0.05271 8.7879448,8.7879448 0 0 1 -0.11626,-0.05478 8.7879448,8.7879448 0 0 1 -0.11472,-0.05684 8.7879448,8.7879448 0 0 1 -0.11422,-0.05788 8.7879448,8.7879448 0 0 1 -0.1137,-0.05994 8.7879448,8.7879448 0 0 1 -0.11263,-0.0615 8.7879448,8.7879448 0 0 1 -0.11163,-0.06304 8.7879448,8.7879448 0 0 1 -0.11059,-0.06511 8.7879448,8.7879448 0 0 1 -0.10957,-0.06615 8.7879448,8.7879448 0 0 1 -0.1085,-0.06821 8.7879448,8.7879448 0 0 1 -0.108,-0.06925 8.7879448,8.7879448 0 0 1 -0.10647,-0.07131 8.7879448,8.7879448 0 0 1 -0.10592,-0.07235 8.7879448,8.7879448 0 0 1 -0.1044,-0.07441 8.7879448,8.7879448 0 0 1 -0.10388,-0.07545 8.7879448,8.7879448 0 0 1 -0.10231,-0.07751 8.7879448,8.7879448 0 0 1 -0.10128,-0.07855 8.7879448,8.7879448 0 0 1 -0.0997,-0.0801 8.7879448,8.7879448 0 0 1 -0.0755,-0.06201 8.7879448,8.7879448 0 0 0 -7.35717,-3.98167 8.7879448,8.7879448 0 0 0 -0.0842,0 z" />
      <path
         style="fill:none;stroke:#fff;stroke-width:5.91317;stroke-linecap:square;stroke-linejoin:round;stroke-miterlimit:4;stroke-dasharray:none;stroke-opacity:1;paint-order:markers fill stroke"
         d="m 86.930905,116.22306 c 28.996875,-22.118154 -12.550667,36.95201 6.870861,40.86406 5.290208,1.06559 10.591164,0.68404 15.114794,-3.33034"
         id="path1648" />
      <path
         id="path1646"
         style="fill:#ffffff;fill-opacity:1;stroke-width:1.19353;paint-order:stroke fill markers"
         d="m 119.04822,88.316843 -15.85876,87.879397 h 17.38757 l 11.32187,-9.59062 7.8599,9.59062 h 17.38705 l 15.85876,-87.879397 h -17.38705 l -11.42139,63.290207 -7.86031,-9.59115 -11.32136,9.59063 11.42129,-63.289687 z" />
      <path
         id="path1649"
         style="fill:#ffffff;fill-opacity:1;stroke-width:1.19353;paint-order:stroke fill markers"
         d="m 182.25243,88.280663 -9.69708,53.735237 -6.16177,34.14468 h 17.38705 l 6.16177,-34.14468 h 19.18229 l -6.16177,34.14468 h 17.38706 l 15.85885,-87.879917 h -0.0946 -36.47478 z m 24.11976,17.380357 -9e-5,5.1e-4 c 0.42814,0 0.82058,0.0859 1.16333,0.24288 0.34275,0.15702 0.63582,0.38489 0.86587,0.6656 0.23006,0.2807 0.39657,0.61489 0.48663,0.98598 0.0901,0.37108 0.10336,0.77903 0.0261,1.20716 -0.0659,0.36512 -0.20202,0.70718 -0.3772,1.03353 h 0.19069 c 0.28516,0 0.5468,0.058 0.77522,0.16278 0.22844,0.10476 0.42379,0.25669 0.57722,0.4439 0.15341,0.1872 0.26473,0.40947 0.32486,0.65681 0.0601,0.24734 0.0691,0.51945 0.0176,0.8046 -0.056,0.31019 -0.17924,0.60316 -0.35111,0.8661 -0.17185,0.26294 -0.39232,0.49569 -0.64291,0.68471 h 0.45578 c 0.32151,0 0.61562,0.0658 0.87278,0.18345 0.25716,0.11763 0.47712,0.28773 0.64959,0.49816 0.17245,0.21043 0.29732,0.4611 0.36471,0.73949 0.0674,0.27839 0.0775,0.58439 0.0195,0.90589 -0.0342,0.18902 -0.0905,0.37242 -0.16505,0.54777 -0.0747,0.17534 -0.16784,0.34279 -0.27673,0.49971 -0.21779,0.31383 -0.49789,0.58521 -0.8156,0.79685 l -9e-5,5.2e-4 c 0.26907,0.0444 0.51329,0.13727 0.72492,0.26975 0.21161,0.13248 0.39066,0.30471 0.52958,0.50746 0.1389,0.20276 0.23771,0.43617 0.28863,0.69143 0.0509,0.25527 0.0546,0.53269 0.002,0.82269 -0.058,0.3215 -0.17845,0.62699 -0.34632,0.90537 -0.16787,0.27839 -0.38329,0.52957 -0.6317,0.74001 -0.24841,0.21043 -0.52977,0.38052 -0.8294,0.49816 -0.29961,0.11763 -0.6173,0.18242 -0.9388,0.18242 h -11.89075 c -0.32151,0 -0.61632,-0.0648 -0.87349,-0.18242 -0.25714,-0.11764 -0.47713,-0.28773 -0.64958,-0.49816 -0.17246,-0.21044 -0.29722,-0.46162 -0.36462,-0.74001 -0.0674,-0.27838 -0.0771,-0.58387 -0.019,-0.90537 0.0523,-0.29 0.15529,-0.56742 0.29832,-0.82269 0.14307,-0.25526 0.32611,-0.48867 0.53819,-0.69143 0.21208,-0.20275 0.4533,-0.37498 0.71273,-0.50746 0.25943,-0.13248 0.53718,-0.22532 0.82227,-0.26975 -0.24131,-0.21164 -0.42336,-0.48354 -0.52789,-0.79737 -0.0523,-0.15692 -0.0851,-0.32437 -0.0963,-0.49971 -0.0113,-0.17535 -0.001,-0.35875 0.0328,-0.54777 0.0581,-0.32151 0.17854,-0.6275 0.3464,-0.90589 0.16788,-0.27839 0.3832,-0.52906 0.63161,-0.73949 0.24841,-0.21043 0.52977,-0.38053 0.82939,-0.49816 0.29963,-0.11764 0.61749,-0.18345 0.939,-0.18345 h 0.45579 c -0.18238,-0.18903 -0.31902,-0.42075 -0.39597,-0.68368 -0.077,-0.26294 -0.0943,-0.55693 -0.0384,-0.86713 0.0515,-0.28515 0.15839,-0.55623 0.3078,-0.80357 0.14939,-0.24734 0.34111,-0.47063 0.5621,-0.65784 0.221,-0.1872 0.47171,-0.33914 0.73795,-0.4439 0.26624,-0.10476 0.5483,-0.16278 0.83346,-0.16278 h 0.51677 c 0.35704,0 0.7104,-0.0723 1.04329,-0.20309 0.33288,-0.13076 0.6454,-0.31907 0.92145,-0.55293 0.27606,-0.23386 0.51567,-0.51238 0.70224,-0.82166 0.18659,-0.30929 0.32033,-0.64962 0.38476,-1.00666 0.0507,-0.28112 0.0532,-0.55063 0.0146,-0.80306 -0.0385,-0.25244 -0.1182,-0.48804 -0.23185,-0.6997 0.16302,-0.0259 0.32909,-0.0486 0.49711,-0.0486 z" />
      <path
         id="path1651"
         style="fill:#ffffff;fill-opacity:1;stroke-width:1.19353;paint-order:stroke fill markers"
         d="m 245.57019,89.107544 -15.85876,87.879406 h 17.38706 36.47528 l 9.69708,-53.73522 h -5.72471 l 6.16168,-34.144186 h -30.75057 z m 15.2548,12.018916 h 19.88976 l -1.8238,10.10636 -0.96408,5.34232 h -19.88976 l 0.96408,-5.34232 z m -7.6291,41.68015 h 23.27196 0.22066 l -2.78788,15.44866 h -23.49262 l 0.14856,-0.8232 z" />
    </g>
  </g>
</svg>
