<?xml version="1.0" encoding="UTF-8" standalone="no"?>
<svg
   xmlns:dc="http://purl.org/dc/elements/1.1/"
   xmlns:cc="http://creativecommons.org/ns#"
   xmlns:rdf="http://www.w3.org/1999/02/22-rdf-syntax-ns#"
   xmlns:svg="http://www.w3.org/2000/svg"
   xmlns="http://www.w3.org/2000/svg"
   xmlns:sodipodi="http://sodipodi.sourceforge.net/DTD/sodipodi-0.dtd"
   xmlns:inkscape="http://www.inkscape.org/namespaces/inkscape"
   width="1500"
   height="1000"
   viewBox="0 0 396.875 264.58333"
   version="1.1"
   id="svg8"
   inkscape:version="1.0.2 (e86c870879, 2021-01-15, custom)"
   sodipodi:docname="wabWholeTextOriginal.svg">
  <defs
     id="defs2" />
  <sodipodi:namedview
     id="base"
     pagecolor="#ffffff"
     bordercolor="#666666"
     borderopacity="1.0"
     inkscape:pageopacity="0.0"
     inkscape:pageshadow="2"
     inkscape:zoom="1.0647362"
     inkscape:cx="685.96423"
     inkscape:cy="629.57618"
     inkscape:document-units="px"
     inkscape:current-layer="layer1"
     inkscape:document-rotation="0"
     showgrid="false"
     units="px"
     showguides="true"
     inkscape:guide-bbox="true"
     inkscape:window-width="1920"
     inkscape:window-height="1027"
     inkscape:window-x="-8"
     inkscape:window-y="22"
     inkscape:window-maximized="1" />
  <metadata
     id="metadata5">
    <rdf:RDF>
      <cc:Work
         rdf:about="">
        <dc:format>image/svg+xml</dc:format>
        <dc:type
           rdf:resource="http://purl.org/dc/dcmitype/StillImage" />
        <dc:title />
      </cc:Work>
    </rdf:RDF>
  </metadata>
  <g
     inkscape:label="Warstwa 1"
     inkscape:groupmode="layer"
     id="layer1">
    <path
       id="circle1612"
       style="fill:#ff5555;fill-opacity:1;stroke-width:0.924547;paint-order:stroke fill markers"
       d="m 344.63115,119.41261 a 3.5574992,3.5574992 0 0 0 -3.52346,3.55735 3.5574992,3.5574992 0 0 0 1.51876,2.91554 3.5574992,3.5574992 0 0 1 -0.0174,-0.0105 3.5574992,3.5574992 0 0 1 -0.0441,-0.0274 3.5574992,3.5574992 0 0 1 -0.0435,-0.0283 3.5574992,3.5574992 0 0 1 -0.0433,-0.0287 3.5574992,3.5574992 0 0 1 -0.0429,-0.0293 6.770725,6.770725 0 0 0 3.95356,1.27462 6.770725,6.770725 0 0 0 6.77079,-6.77078 6.770725,6.770725 0 0 0 -0.0167,-0.47445 3.5574992,3.5574992 0 0 1 -0.0174,0.037 3.5574992,3.5574992 0 0 1 -0.0228,0.0466 3.5574992,3.5574992 0 0 1 -0.0234,0.0462 3.5574992,3.5574992 0 0 1 -0.0243,0.046 3.5574992,3.5574992 0 0 1 -0.0247,0.0456 3.5574992,3.5574992 0 0 1 -0.0255,0.0452 3.5574992,3.5574992 0 0 1 -0.0261,0.0448 3.5574992,3.5574992 0 0 1 -0.0268,0.0446 3.5574992,3.5574992 0 0 1 -0.0274,0.0441 3.5574992,3.5574992 0 0 1 -0.028,0.0435 3.5574992,3.5574992 0 0 1 -0.0287,0.0433 3.5574992,3.5574992 0 0 1 -0.0295,0.0429 3.5574992,3.5574992 0 0 1 -0.0299,0.0423 3.5574992,3.5574992 0 0 1 -0.0306,0.042 3.5574992,3.5574992 0 0 1 -0.0312,0.0414 3.5574992,3.5574992 0 0 1 -0.0318,0.041 3.5574992,3.5574992 0 0 1 -0.0324,0.0406 3.5574992,3.5574992 0 0 1 -0.0328,0.0402 3.5574992,3.5574992 0 0 1 -0.0337,0.0396 3.5574992,3.5574992 0 0 1 -0.0341,0.0391 3.5574992,3.5574992 0 0 1 -0.0345,0.0387 3.5574992,3.5574992 0 0 1 -0.0353,0.038 3.5574992,3.5574992 0 0 1 -0.0358,0.0376 3.5574992,3.5574992 0 0 1 -0.0364,0.037 3.5574992,3.5574992 0 0 1 -0.0368,0.0366 3.5574992,3.5574992 0 0 1 -0.0374,0.036 3.5574992,3.5574992 0 0 1 -0.0379,0.0353 3.5574992,3.5574992 0 0 1 -0.0385,0.0349 3.5574992,3.5574992 0 0 1 -0.0389,0.0343 3.5574992,3.5574992 0 0 1 -0.0396,0.0337 3.5574992,3.5574992 0 0 1 -0.04,0.0333 3.5574992,3.5574992 0 0 1 -0.0404,0.0324 3.5574992,3.5574992 0 0 1 -0.0408,0.032 3.5574992,3.5574992 0 0 1 -0.0414,0.0314 3.5574992,3.5574992 0 0 1 -0.0418,0.0308 3.5574992,3.5574992 0 0 1 -0.0423,0.0301 3.5574992,3.5574992 0 0 1 -0.0427,0.0297 3.5574992,3.5574992 0 0 1 -0.0431,0.0289 3.5574992,3.5574992 0 0 1 -0.0435,0.0283 3.5574992,3.5574992 0 0 1 -0.0439,0.0276 3.5574992,3.5574992 0 0 1 -0.0444,0.027 3.5574992,3.5574992 0 0 1 -0.0446,0.0264 3.5574992,3.5574992 0 0 1 -0.0452,0.0258 3.5574992,3.5574992 0 0 1 -0.0454,0.0251 3.5574992,3.5574992 0 0 1 -0.0458,0.0242 3.5574992,3.5574992 0 0 1 -0.0462,0.0238 3.5574992,3.5574992 0 0 1 -0.0464,0.023 3.5574992,3.5574992 0 0 1 -0.0469,0.0224 3.5574992,3.5574992 0 0 1 -0.0473,0.0215 3.5574992,3.5574992 0 0 1 -0.0475,0.0209 3.5574992,3.5574992 0 0 1 -0.0477,0.0203 3.5574992,3.5574992 0 0 1 -0.0481,0.0197 3.5574992,3.5574992 0 0 1 -0.0483,0.0188 3.5574992,3.5574992 0 0 1 -0.0487,0.0182 3.5574992,3.5574992 0 0 1 -0.0487,0.0174 3.5574992,3.5574992 0 0 1 -0.0492,0.0167 3.5574992,3.5574992 0 0 1 -0.0494,0.0161 3.5574992,3.5574992 0 0 1 -0.0496,0.0153 3.5574992,3.5574992 0 0 1 -0.05,0.0147 3.5574992,3.5574992 0 0 1 -0.05,0.0138 3.5574992,3.5574992 0 0 1 -0.0502,0.013 3.5574992,3.5574992 0 0 1 -0.0504,0.0126 3.5574992,3.5574992 0 0 1 -0.0506,0.0115 3.5574992,3.5574992 0 0 1 -0.0506,0.0109 3.5574992,3.5574992 0 0 1 -0.0508,0.0102 3.5574992,3.5574992 0 0 1 -0.051,0.009 3.5574992,3.5574992 0 0 1 -0.0512,0.009 3.5574992,3.5574992 0 0 1 -0.0513,0.008 3.5574992,3.5574992 0 0 1 -0.0515,0.007 3.5574992,3.5574992 0 0 1 -0.0515,0.007 3.5574992,3.5574992 0 0 1 -0.0517,0.006 3.5574992,3.5574992 0 0 1 -0.0517,0.005 3.5574992,3.5574992 0 0 1 -0.0517,0.004 3.5574992,3.5574992 0 0 1 -0.0519,0.003 3.5574992,3.5574992 0 0 1 -0.0519,0.003 3.5574992,3.5574992 0 0 1 -0.0519,0.002 3.5574992,3.5574992 0 0 1 -0.0519,0.001 3.5574992,3.5574992 0 0 1 -0.0519,4e-4 3.5574992,3.5574992 0 0 1 -0.0404,-2.1e-4 3.5574992,3.5574992 0 0 1 -0.0519,-10e-4 3.5574992,3.5574992 0 0 1 -0.0519,-0.002 3.5574992,3.5574992 0 0 1 -0.0519,-0.002 3.5574992,3.5574992 0 0 1 -0.0517,-0.003 3.5574992,3.5574992 0 0 1 -0.0519,-0.004 3.5574992,3.5574992 0 0 1 -0.0517,-0.005 3.5574992,3.5574992 0 0 1 -0.0517,-0.006 3.5574992,3.5574992 0 0 1 -0.0515,-0.006 3.5574992,3.5574992 0 0 1 -0.0515,-0.007 3.5574992,3.5574992 0 0 1 -0.0513,-0.008 3.5574992,3.5574992 0 0 1 -0.0512,-0.009 3.5574992,3.5574992 0 0 1 -0.051,-0.009 3.5574992,3.5574992 0 0 1 -0.051,-0.01 3.5574992,3.5574992 0 0 1 -0.0506,-0.0106 3.5574992,3.5574992 0 0 1 -0.0506,-0.0115 3.5574992,3.5574992 0 0 1 -0.0504,-0.0121 3.5574992,3.5574992 0 0 1 -0.0504,-0.013 3.5574992,3.5574992 0 0 1 -0.05,-0.0138 3.5574992,3.5574992 0 0 1 -0.0498,-0.0142 3.5574992,3.5574992 0 0 1 -0.0498,-0.0153 3.5574992,3.5574992 0 0 1 -0.0494,-0.0159 3.5574992,3.5574992 0 0 1 -0.0492,-0.0165 3.5574992,3.5574992 0 0 1 -0.0489,-0.0174 3.5574992,3.5574992 0 0 1 -0.0487,-0.018 3.5574992,3.5574992 0 0 1 -0.0483,-0.0186 3.5574992,3.5574992 0 0 1 -0.0481,-0.0195 3.5574992,3.5574992 0 0 1 -0.0479,-0.0201 3.5574992,3.5574992 0 0 1 -0.0475,-0.0209 3.5574992,3.5574992 0 0 1 -0.0473,-0.0213 3.5574992,3.5574992 0 0 1 -0.0471,-0.0222 3.5574992,3.5574992 0 0 1 -0.0464,-0.023 3.5574992,3.5574992 0 0 1 -0.0462,-0.0234 3.5574992,3.5574992 0 0 1 -0.046,-0.0243 3.5574992,3.5574992 0 0 1 -0.0456,-0.0249 3.5574992,3.5574992 0 0 1 -0.0452,-0.0255 3.5574992,3.5574992 0 0 1 -0.0448,-0.0263 3.5574992,3.5574992 0 0 1 -0.0444,-0.0268 3.5574992,3.5574992 0 0 1 -0.0439,-0.0276 3.5574992,3.5574992 0 0 1 -0.0437,-0.028 3.5574992,3.5574992 0 0 1 -0.0431,-0.0289 3.5574992,3.5574992 0 0 1 -0.0429,-0.0293 3.5574992,3.5574992 0 0 1 -0.0423,-0.0301 3.5574992,3.5574992 0 0 1 -0.0421,-0.0305 3.5574992,3.5574992 0 0 1 -0.0414,-0.0314 3.5574992,3.5574992 0 0 1 -0.041,-0.0318 3.5574992,3.5574992 0 0 1 -0.0404,-0.0324 3.5574992,3.5574992 0 0 1 -0.0306,-0.0251 3.5574992,3.5574992 0 0 0 -2.9783,-1.61184 3.5574992,3.5574992 0 0 0 -0.0341,0 z" />
    <path
       style="fill:none;stroke:#ff5555;stroke-width:2.39374;stroke-linecap:square;stroke-linejoin:round;stroke-miterlimit:4;stroke-dasharray:none;stroke-opacity:1;paint-order:markers fill stroke"
       d="m 21.104021,125.53334 c 11.738392,-8.95377 -5.080711,14.95876 2.781432,16.54242 2.141561,0.43137 4.28747,0.27691 6.118711,-1.34818"
       id="path1648" />
    <path
       style="fill:none;stroke:#ff5555;stroke-width:1.63801;stroke-linecap:square;stroke-linejoin:round;stroke-miterlimit:4;stroke-dasharray:none;stroke-opacity:1;paint-order:markers fill stroke"
       d="m 277.43149,125.9286 c 8.34541,-5.8972 -3.61213,9.85224 1.97746,10.89528 1.52254,0.28412 3.04818,0.18239 4.3501,-0.88794"
       id="path2566" />
    <path
       id="path916"
       style="fill:#ff5555;fill-opacity:1;stroke-width:0.484769;paint-order:stroke fill markers"
       d="m 30.514748,115.85963 -6.441261,35.69346 h 7.06221 l 4.598537,-3.89536 3.192411,3.89536 h 7.061998 l 6.441261,-35.69346 h -7.061998 l -4.638956,25.70621 -3.19258,-3.89558 -4.598331,3.89537 4.638918,-25.706 z" />
    <path
       id="path918"
       style="fill:#ff5555;fill-opacity:1;stroke-width:0.484769;paint-order:stroke fill markers"
       d="m 181.05026,115.84503 -6.44126,35.69346 h 7.062 14.81495 l 3.93861,-21.82532 h -2.32517 l 2.50265,-13.86814 h -12.48978 z m 6.19595,4.88165 h 8.07851 l -0.74076,4.10484 -0.39158,2.16986 h -8.0785 l 0.39157,-2.16986 z m -3.09866,16.92898 h 9.45223 0.0896 l -1.13234,6.2747 h -9.54186 l 0.0603,-0.33436 z" />
    <path
       id="rect920"
       style="fill:#ff5555;stroke:none;stroke-width:9.07737;stroke-linecap:square;stroke-linejoin:round;paint-order:markers fill stroke"
       d="M 209.20117 437.89453 L 184.85547 572.79883 L 211.54688 572.79883 L 221.31055 518.69336 L 250.75781 518.69336 L 240.99414 572.79883 L 267.68555 572.79883 L 292.03125 437.89453 L 265.33789 437.89453 L 255.57422 492.00195 L 226.12891 492.00195 L 235.89258 437.89453 L 209.20117 437.89453 z "
       transform="scale(0.26458333)" />
    <path
       id="path926"
       style="fill:#ff5555;fill-opacity:1;stroke-width:0.484769;paint-order:stroke fill markers"
       d="m 79.400037,115.84494 -3.938609,21.82532 -2.50269,13.86835 h 7.061997 l 2.50269,-13.86835 h 7.79116 l -2.50269,13.86835 h 7.062002 l 6.441303,-35.69367 h -0.0384 -14.814747 z m 9.796581,7.05927 -3.7e-5,2.1e-4 c 0.173895,0 0.33329,0.0349 0.472503,0.0986 0.139214,0.0638 0.258248,0.15633 0.351688,0.27034 0.09344,0.11401 0.161071,0.24975 0.197651,0.40047 0.03658,0.15072 0.04197,0.31641 0.01059,0.4903 -0.02676,0.1483 -0.08205,0.28724 -0.153206,0.41979 h 0.07745 c 0.115821,0 0.222092,0.0236 0.314868,0.0661 0.09278,0.0425 0.172128,0.10426 0.234444,0.1803 0.06231,0.076 0.107526,0.16631 0.131947,0.26677 0.02442,0.10046 0.02804,0.21098 0.0071,0.3268 -0.02274,0.12599 -0.0728,0.24498 -0.142611,0.35178 -0.0698,0.1068 -0.159344,0.20133 -0.261129,0.27811 h 0.185122 c 0.130586,0 0.250045,0.0267 0.354494,0.0745 0.10445,0.0478 0.193791,0.11686 0.263841,0.20233 0.07005,0.0855 0.120756,0.18728 0.148132,0.30036 0.02737,0.11307 0.03147,0.23735 0.0079,0.36794 -0.01385,0.0768 -0.03676,0.15126 -0.06704,0.22248 -0.03032,0.0712 -0.06817,0.13923 -0.112397,0.20296 -0.08846,0.12747 -0.202224,0.2377 -0.331264,0.32366 l -3.8e-5,2.1e-4 c 0.109286,0.018 0.208479,0.0558 0.294433,0.10956 0.08595,0.0538 0.158673,0.12376 0.215098,0.20611 0.05642,0.0824 0.09655,0.17716 0.117233,0.28084 0.02069,0.10368 0.02203,0.21636 7.78e-4,0.33414 -0.02357,0.13059 -0.07248,0.25466 -0.140664,0.36773 -0.06818,0.11307 -0.155677,0.21509 -0.256575,0.30057 -0.100893,0.0855 -0.215173,0.15455 -0.336868,0.20233 -0.121694,0.0478 -0.250729,0.0741 -0.381311,0.0741 h -4.829597 c -0.130586,0 -0.250325,-0.0263 -0.354776,-0.0741 -0.104446,-0.0478 -0.193796,-0.11686 -0.263841,-0.20233 -0.07005,-0.0855 -0.120719,-0.1875 -0.148095,-0.30057 -0.02737,-0.11307 -0.0313,-0.23714 -0.0077,-0.36773 0.02126,-0.11778 0.06308,-0.23046 0.121168,-0.33414 0.05811,-0.10368 0.132453,-0.19848 0.218592,-0.28084 0.08614,-0.0824 0.184114,-0.1523 0.289484,-0.20611 0.105374,-0.0538 0.218184,-0.0915 0.333981,-0.10956 -0.09801,-0.086 -0.171958,-0.1964 -0.214413,-0.32387 -0.02124,-0.0637 -0.03455,-0.13174 -0.03914,-0.20296 -0.0046,-0.0712 -5.52e-4,-0.14571 0.0133,-0.22248 0.02357,-0.13059 0.07252,-0.25487 0.140699,-0.36794 0.06818,-0.11308 0.155644,-0.21489 0.256537,-0.30036 0.100897,-0.0855 0.215173,-0.15456 0.336867,-0.20233 0.121699,-0.0478 0.250801,-0.0745 0.381387,-0.0745 h 0.185125 c -0.07407,-0.0768 -0.129575,-0.1709 -0.16083,-0.27769 -0.03126,-0.1068 -0.03831,-0.22621 -0.01557,-0.3522 0.0209,-0.11582 0.06433,-0.22592 0.125015,-0.32638 0.06068,-0.10046 0.138546,-0.19115 0.228302,-0.26719 0.08976,-0.076 0.191592,-0.13775 0.299732,-0.1803 0.108139,-0.0426 0.222698,-0.0661 0.338519,-0.0661 h 0.209894 c 0.145017,0 0.288542,-0.0294 0.423751,-0.0825 0.135203,-0.0531 0.262134,-0.1296 0.374257,-0.22458 0.112126,-0.095 0.209448,-0.20811 0.285227,-0.33373 0.07578,-0.12562 0.130103,-0.26385 0.156273,-0.40887 0.02061,-0.11418 0.02159,-0.22364 0.006,-0.32617 -0.01561,-0.10253 -0.048,-0.19823 -0.09417,-0.28419 0.06621,-0.0105 0.133665,-0.0197 0.201909,-0.0197 z" />
    <path
       id="rect928"
       style="fill:#ff5555;stroke:none;stroke-width:9.07737;stroke-linecap:square;stroke-linejoin:round;paint-order:markers fill stroke"
       d="M 388.60352 438.51367 L 383.78711 465.20508 L 411.83984 465.20508 L 392.3125 573.41797 L 419.00391 573.41797 L 438.5332 465.20508 L 466.47852 465.20508 L 471.29492 438.51367 L 443.34961 438.51367 L 416.65625 438.51367 L 388.60352 438.51367 z "
       transform="scale(0.26458333)" />
    <path
       id="path932"
       style="fill:#ff5555;fill-opacity:1;stroke-width:0.484769;paint-order:stroke fill markers"
       d="m 141.16946,115.84494 -3.93861,21.82532 -2.50269,13.86835 h 7.062 l 2.50269,-13.86835 h 7.79116 l -2.50269,13.86835 h 7.062 l 6.4413,-35.69367 h -0.0384 -14.81476 z m 9.79658,7.05927 -4e-5,2.1e-4 c 0.1739,0 0.33329,0.0349 0.47251,0.0986 0.13921,0.0638 0.25824,0.15633 0.35168,0.27034 0.0934,0.11401 0.16107,0.24975 0.19766,0.40047 0.0366,0.15072 0.042,0.31641 0.0106,0.4903 -0.0268,0.1483 -0.0821,0.28724 -0.1532,0.41979 h 0.0775 c 0.11582,0 0.22209,0.0236 0.31487,0.0661 0.0928,0.0425 0.17212,0.10426 0.23444,0.1803 0.0623,0.076 0.10753,0.16631 0.13195,0.26677 0.0244,0.10046 0.028,0.21098 0.007,0.3268 -0.0227,0.12599 -0.0728,0.24498 -0.14261,0.35178 -0.0698,0.1068 -0.15935,0.20133 -0.26113,0.27811 h 0.18512 c 0.13059,0 0.25005,0.0267 0.35449,0.0745 0.10445,0.0478 0.1938,0.11686 0.26384,0.20233 0.0701,0.0855 0.12076,0.18728 0.14814,0.30036 0.0274,0.11307 0.0315,0.23735 0.008,0.36794 -0.0138,0.0768 -0.0368,0.15126 -0.067,0.22248 -0.0303,0.0712 -0.0682,0.13923 -0.11239,0.20296 -0.0885,0.12747 -0.20223,0.2377 -0.33127,0.32366 l -3e-5,2.1e-4 c 0.10928,0.018 0.20848,0.0558 0.29443,0.10956 0.086,0.0538 0.15867,0.12376 0.2151,0.20611 0.0564,0.0824 0.0966,0.17716 0.11723,0.28084 0.0207,0.10368 0.022,0.21636 7.8e-4,0.33414 -0.0236,0.13059 -0.0725,0.25466 -0.14067,0.36773 -0.0682,0.11307 -0.15567,0.21509 -0.25657,0.30057 -0.10089,0.0855 -0.21517,0.15455 -0.33687,0.20233 -0.12169,0.0478 -0.25073,0.0741 -0.38131,0.0741 h -4.8296 c -0.13058,0 -0.25032,-0.0263 -0.35477,-0.0741 -0.10445,-0.0478 -0.1938,-0.11686 -0.26384,-0.20233 -0.0701,-0.0855 -0.12072,-0.1875 -0.1481,-0.30057 -0.0274,-0.11307 -0.0313,-0.23714 -0.008,-0.36773 0.0213,-0.11778 0.0631,-0.23046 0.12117,-0.33414 0.0581,-0.10368 0.13245,-0.19848 0.21859,-0.28084 0.0861,-0.0824 0.18411,-0.1523 0.28948,-0.20611 0.10538,-0.0538 0.21819,-0.0915 0.33398,-0.10956 -0.098,-0.086 -0.17195,-0.1964 -0.21441,-0.32387 -0.0212,-0.0637 -0.0345,-0.13174 -0.0391,-0.20296 -0.005,-0.0712 -5.5e-4,-0.14571 0.0133,-0.22248 0.0236,-0.13059 0.0725,-0.25487 0.1407,-0.36794 0.0682,-0.11308 0.15564,-0.21489 0.25654,-0.30036 0.10089,-0.0855 0.21517,-0.15456 0.33686,-0.20233 0.1217,-0.0478 0.2508,-0.0745 0.38139,-0.0745 h 0.18513 c -0.0741,-0.0768 -0.12958,-0.1709 -0.16083,-0.27769 -0.0313,-0.1068 -0.0383,-0.22621 -0.0156,-0.3522 0.0209,-0.11582 0.0643,-0.22592 0.12502,-0.32638 0.0607,-0.10046 0.13855,-0.19115 0.2283,-0.26719 0.0898,-0.076 0.19159,-0.13775 0.29973,-0.1803 0.10814,-0.0426 0.2227,-0.0661 0.33852,-0.0661 h 0.2099 c 0.14501,0 0.28854,-0.0294 0.42375,-0.0825 0.1352,-0.0531 0.26213,-0.1296 0.37425,-0.22458 0.11213,-0.095 0.20945,-0.20811 0.28523,-0.33373 0.0758,-0.12562 0.1301,-0.26385 0.15627,-0.40887 0.0206,-0.11418 0.0216,-0.22364 0.006,-0.32617 -0.0156,-0.10253 -0.048,-0.19823 -0.0942,-0.28419 0.0662,-0.0105 0.13367,-0.0197 0.20191,-0.0197 z" />
    <path
       id="rect934"
       style="fill:#ff5555;stroke:none;stroke-width:9.07737;stroke-linecap:square;stroke-linejoin:round;paint-order:markers fill stroke"
       d="M 777.36328 437.83984 L 757.83398 546.05273 L 757.82812 546.05273 L 753.01172 572.74414 L 809.00977 572.74414 L 835.70312 572.74414 L 840.51953 546.05273 L 860.04688 437.83984 L 833.35547 437.83984 L 813.82617 546.05273 L 784.52539 546.05273 L 804.05469 437.83984 L 777.36328 437.83984 z "
       transform="scale(0.26458333)" />
    <path
       id="rect940"
       style="fill:#ff5555;stroke:none;stroke-width:2.40172;stroke-linecap:square;stroke-linejoin:round;paint-order:markers fill stroke"
       d="m 231.11147,115.84512 -5.16661,28.63133 h -0.002 l -1.27434,7.0621 h 0.002 7.0621 14.8146 l 1.27486,-7.0621 h -14.81512 l 5.16713,-28.63133 z" />
    <path
       id="rect944"
       style="fill:#ff5555;stroke:none;stroke-width:2.40172;stroke-linecap:square;stroke-linejoin:round;paint-order:markers fill stroke"
       d="m 255.43608,115.84512 -5.16712,28.63133 h -0.002 l -1.27434,7.0621 h 0.002 7.0621 14.81512 l 1.27434,-7.0621 h -14.81512 l 5.16713,-28.63133 z" />
    <path
       id="path948"
       style="fill:#ff5555;fill-opacity:1;stroke:none;stroke-width:2.53889;stroke-linecap:square;stroke-linejoin:round;paint-order:markers fill stroke"
       d="m 276.44551,151.53841 c 0.17343,-0.29249 0.35215,-0.56235 0.53273,-0.78752 0.20483,-0.2554 0.40935,-0.47126 0.60223,-0.65633 0.38577,-0.37013 0.72509,-0.61696 0.92836,-0.80955 0.0508,-0.0481 0.10929,-0.0884 0.17405,-0.12236 0.0648,-0.034 0.13592,-0.0614 0.2121,-0.0844 0.15234,-0.0459 0.32484,-0.073 0.50769,-0.094 0.18285,-0.0211 0.37604,-0.0361 0.56919,-0.0579 0.19314,-0.0218 0.38638,-0.0505 0.5696,-0.0986 0.18322,-0.0481 0.44475,-0.15494 0.75587,-0.30728 0.31111,-0.15234 0.67164,-0.35014 1.05322,-0.58035 0.38159,-0.23021 0.78408,-0.49276 1.17873,-0.7745 0.39465,-0.28174 0.78144,-0.58279 1.13172,-0.88973 0.35029,-0.30694 0.76007,-0.61823 1.19211,-0.91953 0.43202,-0.3013 0.88629,-0.59256 1.32555,-0.85888 0.43926,-0.26631 0.86351,-0.50785 1.23548,-0.70985 0.37199,-0.20199 0.69174,-0.36434 0.92193,-0.47267 0.46039,-0.21666 1.62847,-0.68609 2.78203,-1.12544 0.57679,-0.21967 1.14985,-0.43186 1.62914,-0.60113 0.47929,-0.16926 0.86489,-0.29565 1.06617,-0.3438 0.20127,-0.0481 0.45964,-0.0797 0.75951,-0.10305 0.29986,-0.0233 0.64106,-0.0385 1.0079,-0.0535 0.36682,-0.015 0.75933,-0.03 1.1615,-0.0533 0.40218,-0.0233 0.81412,-0.0549 1.22002,-0.10306 0.8118,-0.0963 2.87697,-0.301 4.95878,-0.51465 2.08181,-0.21366 4.18026,-0.43619 5.05877,-0.56859 0.43925,-0.0662 1.22558,-0.23029 2.16632,-0.43868 0.94074,-0.20839 2.03599,-0.46128 3.09257,-0.70502 1.05659,-0.24375 2.07455,-0.47839 2.86133,-0.65067 0.78678,-0.17227 1.34218,-0.28202 1.47349,-0.276 0.13133,0.006 0.26145,0.036 0.38464,0.0808 0.1232,0.0448 0.23956,0.10426 0.34374,0.16896 0.20836,0.1294 0.36773,0.27983 0.43461,0.37612 0.13376,0.19259 0.75209,1.03515 1.01961,1.42034 0.0669,0.0963 0.10605,0.17904 0.13037,0.2569 0.0243,0.0779 0.0338,0.15079 0.041,0.22752 0.007,0.0767 0.0123,0.15729 0.0279,0.2502 0.0156,0.0929 0.0417,0.1981 0.0911,0.32449 0.0494,0.12638 0.13999,0.26651 0.25253,0.41621 0.11254,0.14971 0.24695,0.30906 0.3841,0.47457 0.13714,0.1655 0.27697,0.33709 0.40021,0.51087 0.12323,0.17378 0.23001,0.34977 0.30082,0.52431 0.0354,0.0873 0.058,0.19083 0.0707,0.30602 0.0127,0.1152 0.0155,0.24205 0.0108,0.37634 -0.009,0.26857 -0.0482,0.56656 -0.0949,0.85845 -0.0467,0.29189 -0.10099,0.57765 -0.14227,0.82215 -0.0413,0.24449 -0.0687,0.44766 -0.0614,0.57405 0.004,0.0632 0.0215,0.12678 0.0505,0.19016 0.029,0.0634 0.0691,0.12646 0.11724,0.1889 0.0963,0.12488 0.22484,0.24687 0.36068,0.36123 0.27169,0.22869 0.5728,0.42737 0.70539,0.55977 0.0663,0.0662 0.1728,0.13538 0.30666,0.20234 0.13387,0.0669 0.29512,0.13152 0.47137,0.18869 0.17624,0.0572 0.36744,0.10691 0.5609,0.14378 0.19345,0.0369 0.38929,0.0609 0.57478,0.0669 0.18549,0.006 0.34265,0.002 0.47635,-0.018 0.13368,-0.0196 0.24378,-0.0541 0.3348,-0.10831 0.091,-0.0542 0.16286,-0.12783 0.22039,-0.22563 0.0575,-0.0978 0.10059,-0.21979 0.13376,-0.37025 0.0164,-0.0752 0.0196,-0.1553 0.0114,-0.23843 -0.008,-0.0831 -0.0276,-0.16922 -0.0551,-0.25649 -0.055,-0.17454 -0.14302,-0.35369 -0.24201,-0.52221 -0.19796,-0.33703 -0.4397,-0.63181 -0.54821,-0.76422 -0.10852,-0.1324 -0.55182,-1.01113 -0.91041,-1.77547 -0.17929,-0.38216 -0.33726,-0.73569 -0.42178,-0.95311 -0.0423,-0.10871 -0.0661,-0.18355 -0.065,-0.21073 10e-4,-0.0272 0.027,-0.007 0.0846,0.0745 0.11512,0.1625 0.24153,0.30393 0.37627,0.4307 0.13473,0.12676 0.2779,0.23872 0.42618,0.34254 0.29655,0.20764 0.61397,0.38231 0.92829,0.57489 0.0786,0.0482 0.14787,0.11249 0.20944,0.18974 0.0616,0.0773 0.11555,0.16733 0.16335,0.26719 0.0956,0.19974 0.16696,0.43823 0.22693,0.6895 0.06,0.25127 0.10844,0.51542 0.15871,0.76631 0.0503,0.25089 0.10232,0.48858 0.1688,0.68718 0.0665,0.19861 0.12488,0.48296 0.17526,0.7978 0.0504,0.31484 0.0926,0.66013 0.12655,0.98061 0.0679,0.64097 0.10266,1.18274 0.10266,1.18274 0,0 0.033,0.0676 0.10096,0.17442 0.068,0.10682 0.17101,0.25281 0.31129,0.40929 0.14028,0.15648 0.31768,0.32351 0.53455,0.47246 0.10842,0.0745 0.22666,0.14445 0.35505,0.20632 0.12838,0.0619 0.26697,0.11571 0.41585,0.15784 0.14888,0.0421 0.28774,0.071 0.4174,0.0888 0.12967,0.0178 0.25018,0.0242 0.36236,0.0216 0.11217,-0.002 0.21603,-0.0143 0.31248,-0.0334 0.0964,-0.0191 0.18542,-0.0454 0.26787,-0.077 0.16487,-0.0632 0.30344,-0.14744 0.42266,-0.23697 0.11922,-0.0895 0.21922,-0.1844 0.30665,-0.26866 0.0437,-0.0421 0.0636,-0.10908 0.0646,-0.19541 10e-4,-0.0863 -0.0169,-0.19207 -0.0489,-0.31169 -0.064,-0.23923 -0.18451,-0.53409 -0.32322,-0.84103 -0.1387,-0.30694 -0.29553,-0.62586 -0.43212,-0.91324 -0.13659,-0.28738 -0.2529,-0.54315 -0.3106,-0.7237 -0.0577,-0.18056 -0.0834,-0.28892 -0.092,-0.36038 -0.009,-0.0715 -7e-5,-0.10606 0.0104,-0.13916 0.0105,-0.0331 0.0231,-0.0647 0.0223,-0.13014 -6.2e-4,-0.0654 -0.0143,-0.16479 -0.0561,-0.3333 -0.0209,-0.0843 -0.0705,-0.19229 -0.14024,-0.31967 -0.0698,-0.12737 -0.15979,-0.27422 -0.2609,-0.43615 -0.20222,-0.32387 -0.44958,-0.70817 -0.67185,-1.11893 -0.11114,-0.20538 -0.21598,-0.4173 -0.30582,-0.63156 -0.0898,-0.21427 -0.16458,-0.43082 -0.21557,-0.64542 -0.051,-0.21459 -0.0783,-0.42729 -0.0729,-0.63366 0.003,-0.10318 0.0137,-0.20482 0.0337,-0.30434 0.02,-0.0995 0.0495,-0.19696 0.0892,-0.29175 0.0794,-0.18958 0.13569,-0.35362 0.17266,-0.49618 0.037,-0.14256 0.0544,-0.26371 0.0564,-0.36752 0.002,-0.10382 -0.0117,-0.19028 -0.0372,-0.26363 -0.0256,-0.0733 -0.0629,-0.13354 -0.10855,-0.1847 -0.0914,-0.10231 -0.21572,-0.16853 -0.34312,-0.23172 -0.1274,-0.0632 -0.25784,-0.12339 -0.36192,-0.21367 -0.10408,-0.0903 -0.20152,-0.23459 -0.28895,-0.40047 -0.0874,-0.16588 -0.16486,-0.35331 -0.22938,-0.52935 -0.12906,-0.35207 -0.20622,-0.65884 -0.20622,-0.65884 0,0 -0.47086,-1.92596 -0.51068,-2.23892 -0.0199,-0.15647 -0.0639,-0.37927 -0.0744,-0.63806 -0.005,-0.1294 -0.002,-0.2677 0.0167,-0.41139 0.0188,-0.14369 0.0532,-0.29262 0.11038,-0.44308 0.0573,-0.15046 0.12058,-0.25134 0.19028,-0.32281 0.0697,-0.0715 0.14568,-0.11362 0.22839,-0.14672 0.0827,-0.0331 0.17208,-0.0572 0.26836,-0.0926 0.0963,-0.0354 0.19953,-0.0819 0.30995,-0.16015 0.11041,-0.0782 0.23723,-0.122 0.37214,-0.14419 0.1349,-0.0222 0.27778,-0.0229 0.42086,-0.0153 0.28617,0.015 0.57247,0.0631 0.79348,0.039 0.1105,-0.012 0.21436,-0.054 0.31369,-0.1146 0.0993,-0.0606 0.19404,-0.13966 0.28625,-0.22543 0.18442,-0.17152 0.35885,-0.37007 0.53922,-0.50247 0.0902,-0.0662 0.17247,-0.0977 0.24614,-0.10789 0.0737,-0.0102 0.13869,8.1e-4 0.1938,0.0205 0.11031,0.0391 0.18149,0.11124 0.20556,0.11124 0.0241,0 -0.0351,0.22886 -0.0736,0.47562 -0.0194,0.12337 -0.0334,0.25116 -0.0292,0.35723 0.002,0.053 0.009,0.10074 0.0216,0.13958 0.0128,0.0388 0.0318,0.0688 0.0586,0.0869 0.21467,0.14444 0.39421,0.21669 0.79278,0.40929 0.0996,0.0482 0.18222,0.0992 0.25146,0.15112 0.0692,0.0519 0.12527,0.10459 0.17172,0.15574 0.0929,0.10232 0.14762,0.19875 0.19478,0.27097 0.0236,0.0361 0.0851,0.0616 0.16505,0.0856 0.0799,0.0241 0.17827,0.0467 0.27516,0.0768 0.0969,0.0301 0.19232,0.0678 0.2668,0.12195 0.0372,0.0271 0.0693,0.0582 0.0935,0.0947 0.0242,0.0365 0.0407,0.0782 0.0471,0.12635 0.006,0.0481 0.0368,0.10549 0.0862,0.16896 0.0494,0.0635 0.11788,0.13319 0.20075,0.20653 0.16574,0.1467 0.38878,0.30767 0.63041,0.46114 0.24163,0.15346 0.50186,0.29939 0.74225,0.416 0.24037,0.11661 0.4609,0.20379 0.6229,0.23991 0.081,0.0181 0.15599,0.0261 0.22647,0.0256 0.0705,-4e-4 0.13655,-0.01 0.19974,-0.0252 0.12638,-0.0312 0.24135,-0.089 0.35793,-0.15973 0.11657,-0.0707 0.23461,-0.15437 0.36721,-0.23675 0.13261,-0.0824 0.27969,-0.16363 0.45413,-0.22984 0.17444,-0.0662 0.29317,-0.13243 0.37524,-0.1975 0.0821,-0.0651 0.12761,-0.1289 0.15529,-0.19058 0.0554,-0.12338 0.0401,-0.23785 0.10543,-0.33415 0.0328,-0.0482 0.0483,-0.10065 0.0533,-0.15595 0.005,-0.0553 -3.2e-4,-0.11322 -0.009,-0.1719 -0.0179,-0.11736 -0.0504,-0.23778 -0.0429,-0.34611 0.008,-0.10833 0.11986,-0.39717 0.26169,-0.71615 0.14181,-0.31898 0.31316,-0.66816 0.43869,-0.89686 0.12552,-0.2287 0.21496,-0.45731 0.273,-0.62884 0.058,-0.17152 0.0847,-0.28587 0.0847,-0.28587 0,0 0.17887,-0.3912 0.38291,-0.82151 0.20404,-0.43032 0.43309,-0.8997 0.53355,-1.05618 0.0502,-0.0782 0.11853,-0.1565 0.19601,-0.23361 0.0775,-0.0771 0.16423,-0.15316 0.25126,-0.22689 0.17406,-0.14745 0.34953,-0.28577 0.4555,-0.40614 0.10598,-0.12036 0.27792,-0.3732 0.42343,-0.59588 0.1455,-0.22268 0.2647,-0.41537 0.2647,-0.41537 0,0 0.16367,-0.24075 0.33839,-0.50857 0.17472,-0.26782 0.36041,-0.56269 0.40402,-0.67102 0.0873,-0.21667 0.15234,-0.57779 0.17841,-0.72224 0.0261,-0.14444 0.0214,-0.38518 0.0277,-0.55369 0.002,-0.0421 0.0208,-0.0902 0.0488,-0.13874 0.0279,-0.0485 0.0645,-0.0974 0.10101,-0.14104 0.0729,-0.0873 0.14502,-0.15344 0.14502,-0.15344 h 2.2e-4 c 0,0 0.17879,-0.45743 0.35754,-0.98103 0.0894,-0.2618 0.17857,-0.54003 0.24553,-0.78604 0.067,-0.246 0.11163,-0.4597 0.11148,-0.5921 -7e-5,-0.0662 -0.0142,-0.13404 -0.0396,-0.20255 -0.0254,-0.0685 -0.062,-0.13776 -0.10723,-0.20716 -0.0904,-0.1388 -0.21515,-0.2779 -0.35197,-0.41181 -0.27365,-0.26781 -0.59608,-0.5146 -0.7922,-0.69516 -0.0981,-0.0903 -0.22983,-0.16106 -0.38697,-0.21786 -0.15714,-0.0568 -0.33968,-0.0995 -0.53956,-0.13413 -0.39977,-0.0692 -0.86882,-0.10549 -1.3416,-0.15364 -0.11821,-0.012 -0.22084,-0.0305 -0.31274,-0.0558 -0.0919,-0.0254 -0.17288,-0.0577 -0.2477,-0.0976 -0.14961,-0.0798 -0.2743,-0.1895 -0.41073,-0.33394 -0.13643,-0.14444 -0.28469,-0.32356 -0.48153,-0.54173 -0.19686,-0.21817 -0.44226,-0.47547 -0.77314,-0.77639 -0.33087,-0.30092 -0.775,-0.63347 -1.25495,-0.96298 -0.47993,-0.32951 -0.99575,-0.65584 -1.47023,-0.94472 -0.94895,-0.57777 -1.7324,-1.00517 -1.7324,-1.00517 0,0 -0.97881,-0.37924 -2.12477,-0.78247 -0.57298,-0.20162 -1.18775,-0.40919 -1.74287,-0.57846 -0.55511,-0.16927 -1.05063,-0.30007 -1.38499,-0.34821 -0.33436,-0.0482 -0.58657,-0.0603 -0.80099,-0.0498 -0.21443,0.0105 -0.391,0.0437 -0.57464,0.0858 -0.18365,0.0421 -0.37427,0.0931 -0.61628,0.13979 -0.24201,0.0466 -0.53549,0.0888 -0.92501,0.11292 -0.38953,0.0241 -0.94705,0.0873 -1.56431,0.16854 -0.61724,0.0812 -1.29414,0.18055 -1.92239,0.27685 -1.25649,0.19258 -2.31822,0.37318 -2.31822,0.37318 0,0 -1.31949,0.24074 -2.8625,0.5537 -0.77152,0.15647 -1.59894,0.33095 -2.34534,0.50248 -0.74638,0.17152 -1.41175,0.33998 -1.8591,0.48443 -0.44736,0.14444 -0.78632,0.27232 -1.07565,0.39984 -0.28933,0.12751 -0.52892,0.2546 -0.7774,0.39753 -0.24847,0.14294 -0.50581,0.3017 -0.83062,0.4924 -0.32479,0.19071 -0.71716,0.41342 -1.23547,0.68425 -0.25916,0.13541 -0.49257,0.24792 -0.70657,0.34233 -0.21399,0.0944 -0.40856,0.17084 -0.58941,0.23403 -0.36172,0.12639 -0.66903,0.20008 -0.97028,0.26027 -0.30125,0.0602 -0.59648,0.10681 -0.93338,0.17904 -0.3369,0.0722 -0.7155,0.16996 -1.18417,0.33246 -0.23434,0.0812 -0.51109,0.16211 -0.81743,0.24138 -0.30634,0.0793 -0.64237,0.15707 -0.99497,0.23193 -0.70522,0.14971 -1.47716,0.28815 -2.21301,0.4055 -0.73587,0.11737 -1.43563,0.2135 -1.99625,0.27895 -0.56061,0.0654 -0.98203,0.10005 -1.1615,0.094 -0.35894,-0.012 -0.89746,-0.0963 -1.45919,-0.16855 -0.28086,-0.0361 -0.56763,-0.069 -0.84058,-0.0886 -0.27294,-0.0196 -0.53207,-0.0256 -0.75802,-0.008 -0.22593,0.018 -0.48139,0.0826 -0.75938,0.17442 -0.27799,0.0918 -0.57852,0.2107 -0.89473,0.33709 -0.31621,0.12638 -0.64812,0.26033 -0.98871,0.38221 -0.3406,0.12187 -0.68978,0.23156 -1.04093,0.3098 -0.17557,0.0391 -0.41339,0.14295 -0.69531,0.29511 -0.28192,0.15215 -0.60804,0.35271 -0.96069,0.58517 -0.35266,0.23246 -0.73183,0.49697 -1.11958,0.77702 -0.38776,0.28004 -0.78403,0.57551 -1.17127,0.87042 -0.77448,0.5898 -1.51233,1.17671 -2.07102,1.62959 -0.55869,0.45289 -0.93825,0.77176 -0.99617,0.82592 -0.11584,0.10833 -0.52315,0.69819 -1.02357,1.4535 -0.50042,0.75531 -1.09396,1.67614 -1.58205,2.44649 -0.12201,0.19259 -0.22874,0.38137 -0.32241,0.56776 -0.0937,0.18638 -0.17443,0.37046 -0.24446,0.55327 -0.14009,0.36562 -0.23758,0.72662 -0.31136,1.09374 -0.0738,0.36713 -0.12373,0.74036 -0.16888,1.13006 -0.0451,0.38969 -0.0852,0.7958 -0.13932,1.22912 -0.0271,0.21666 -0.0399,0.41496 -0.0419,0.59735 -0.002,0.18239 0.007,0.34899 0.0231,0.50227 0.0327,0.30657 0.0952,0.56004 0.16065,0.78121 0.0654,0.22118 0.13378,0.41012 0.17779,0.58728 0.022,0.0886 0.038,0.17409 0.0445,0.25943 0.006,0.0853 0.003,0.17047 -0.0123,0.25774 -0.0315,0.17454 -0.0521,0.3219 -0.0629,0.45883 -0.0108,0.13691 -0.0117,0.26324 -0.004,0.39564 0.0154,0.26481 0.0656,0.55372 0.14167,0.99908 0.038,0.22268 0.0634,0.44996 0.0705,0.67942 0.007,0.22945 -0.004,0.46114 -0.0383,0.69285 -0.0343,0.23171 -0.0917,0.4634 -0.17793,0.69285 -0.0862,0.22945 -0.20099,0.45674 -0.3495,0.67942 -0.0743,0.11134 -0.1641,0.2174 -0.26645,0.31924 -0.10235,0.10184 -0.21718,0.19944 -0.34142,0.29385 -0.24848,0.18883 -0.53451,0.36475 -0.83328,0.53627 -0.29878,0.17153 -0.61028,0.33864 -0.90967,0.50941 -0.29938,0.17077 -0.58677,0.34529 -0.83711,0.53186 -0.12516,0.0933 -0.25705,0.23659 -0.39255,0.4179 -0.13551,0.1813 -0.27454,0.40058 -0.41397,0.64583 -0.13942,0.24525 -0.27911,0.51645 -0.41604,0.80158 -0.13693,0.28512 -0.27119,0.58419 -0.39921,0.88511 -0.25606,0.60184 -0.4878,1.21122 -0.66976,1.73181 -0.0892,0.25514 -0.11941,0.38653 -0.18162,0.5877 z" />
    <path
       id="rect950"
       style="fill:#ff5555;stroke:none;stroke-width:9.07737;stroke-linecap:square;stroke-linejoin:round;paint-order:markers fill stroke"
       d="M 1346.6621 437.83984 L 1341.8457 464.53125 L 1369.9004 464.53125 L 1350.3711 572.74414 L 1377.0625 572.74414 L 1396.5918 464.53125 L 1424.5371 464.53125 L 1429.3535 437.83984 L 1401.4082 437.83984 L 1374.7168 437.83984 L 1346.6621 437.83984 z "
       transform="scale(0.26458333)" />
  </g>
</svg>
